<?xml version="1.0" encoding="UTF-8"?>
<!DOCTYPE svg PUBLIC "-//W3C//DTD SVG 1.1//EN" "http://www.w3.org/Graphics/SVG/1.1/DTD/svg11.dtd">
<svg version="1.2" width="210mm" height="297mm" viewBox="0 0 21000 29700" preserveAspectRatio="xMidYMid" fill-rule="evenodd" stroke-width="28.222" stroke-linejoin="round" xmlns="http://www.w3.org/2000/svg" xmlns:ooo="http://xml.openoffice.org/svg/export" xmlns:xlink="http://www.w3.org/1999/xlink" xmlns:presentation="http://sun.com/xmlns/staroffice/presentation" xmlns:smil="http://www.w3.org/2001/SMIL20/" xmlns:anim="urn:oasis:names:tc:opendocument:xmlns:animation:1.0" xml:space="preserve">
 <defs class="ClipPathGroup">
  <clipPath id="presentation_clip_path" clipPathUnits="userSpaceOnUse">
   <rect x="0" y="0" width="21000" height="29700"/>
  </clipPath>
 </defs>
 <defs class="TextShapeIndex">
  <g ooo:slide="id1" ooo:id-list="id3 id4 id5 id6 id7 id8 id9 id10 id11 id12 id13 id14 id15 id16"/>
 </defs>
 <defs class="EmbeddedBulletChars">
  <g id="bullet-char-template(57356)" transform="scale(0.00048828125,-0.00048828125)">
   <path d="M 580,1141 L 1163,571 580,0 -4,571 580,1141 Z"/>
  </g>
  <g id="bullet-char-template(57354)" transform="scale(0.00048828125,-0.00048828125)">
   <path d="M 8,1128 L 1137,1128 1137,0 8,0 8,1128 Z"/>
  </g>
  <g id="bullet-char-template(10146)" transform="scale(0.00048828125,-0.00048828125)">
   <path d="M 174,0 L 602,739 174,1481 1456,739 174,0 Z M 1358,739 L 309,1346 659,739 1358,739 Z"/>
  </g>
  <g id="bullet-char-template(10132)" transform="scale(0.00048828125,-0.00048828125)">
   <path d="M 2015,739 L 1276,0 717,0 1260,543 174,543 174,936 1260,936 717,1481 1274,1481 2015,739 Z"/>
  </g>
  <g id="bullet-char-template(10007)" transform="scale(0.00048828125,-0.00048828125)">
   <path d="M 0,-2 C -7,14 -16,27 -25,37 L 356,567 C 262,823 215,952 215,954 215,979 228,992 255,992 264,992 276,990 289,987 310,991 331,999 354,1012 L 381,999 492,748 772,1049 836,1024 860,1049 C 881,1039 901,1025 922,1006 886,937 835,863 770,784 769,783 710,716 594,584 L 774,223 C 774,196 753,168 711,139 L 727,119 C 717,90 699,76 672,76 641,76 570,178 457,381 L 164,-76 C 142,-110 111,-127 72,-127 30,-127 9,-110 8,-76 1,-67 -2,-52 -2,-32 -2,-23 -1,-13 0,-2 Z"/>
  </g>
  <g id="bullet-char-template(10004)" transform="scale(0.00048828125,-0.00048828125)">
   <path d="M 285,-33 C 182,-33 111,30 74,156 52,228 41,333 41,471 41,549 55,616 82,672 116,743 169,778 240,778 293,778 328,747 346,684 L 369,508 C 377,444 397,411 428,410 L 1163,1116 C 1174,1127 1196,1133 1229,1133 1271,1133 1292,1118 1292,1087 L 1292,965 C 1292,929 1282,901 1262,881 L 442,47 C 390,-6 338,-33 285,-33 Z"/>
  </g>
  <g id="bullet-char-template(9679)" transform="scale(0.00048828125,-0.00048828125)">
   <path d="M 813,0 C 632,0 489,54 383,161 276,268 223,411 223,592 223,773 276,916 383,1023 489,1130 632,1184 813,1184 992,1184 1136,1130 1245,1023 1353,916 1407,772 1407,592 1407,412 1353,268 1245,161 1136,54 992,0 813,0 Z"/>
  </g>
  <g id="bullet-char-template(8226)" transform="scale(0.00048828125,-0.00048828125)">
   <path d="M 346,457 C 273,457 209,483 155,535 101,586 74,649 74,723 74,796 101,859 155,911 209,963 273,989 346,989 419,989 480,963 531,910 582,859 608,796 608,723 608,648 583,586 532,535 482,483 420,457 346,457 Z"/>
  </g>
  <g id="bullet-char-template(8211)" transform="scale(0.00048828125,-0.00048828125)">
   <path d="M -4,459 L 1135,459 1135,606 -4,606 -4,459 Z"/>
  </g>
 </defs>
 <defs class="TextEmbeddedBitmaps"/>
 <g>
  <g id="id2" class="Master_Slide">
   <g id="bg-id2" class="Background"/>
   <g id="bo-id2" class="BackgroundObjects"/>
  </g>
 </g>
 <g class="SlideGroup">
  <g>
   <g id="id1" class="Slide" clip-path="url(#presentation_clip_path)">
    <g class="Page">
     <g class="com.sun.star.drawing.PolyPolygonShape">
      <g id="id3">
       <rect class="BoundingBox" stroke="none" fill="none" x="0" y="0" width="21002" height="15752"/>
      </g>
     </g>
     <g class="com.sun.star.drawing.PolyPolygonShape">
      <g id="id4">
       <rect class="BoundingBox" stroke="none" fill="none" x="0" y="0" width="21002" height="15752"/>
      </g>
     </g>
     <g class="com.sun.star.drawing.ClosedBezierShape">
      <g id="id5">
       <rect class="BoundingBox" stroke="none" fill="none" x="1962" y="11465" width="18175" height="3205"/>
       <path fill="rgb(207,226,243)" stroke="none" d="M 1962,11999 C 1962,11704 2201,11465 2496,11465 L 19602,11465 C 19744,11465 19880,11521 19980,11621 20080,11721 20136,11857 20136,11999 L 20136,14134 C 20136,14429 19897,14668 19602,14668 L 2496,14668 C 2201,14668 1962,14429 1962,14134 L 1962,11999 Z"/>
      </g>
     </g>
     <g class="com.sun.star.drawing.ClosedBezierShape">
      <g id="id6">
       <rect class="BoundingBox" stroke="none" fill="none" x="1951" y="11454" width="18197" height="3227"/>
       <path fill="none" stroke="rgb(0,0,0)" stroke-width="22" stroke-linejoin="round" d="M 1962,11999 C 1962,11704 2201,11465 2496,11465 L 19602,11465 C 19744,11465 19880,11521 19980,11621 20080,11721 20136,11857 20136,11999 L 20136,14134 C 20136,14429 19897,14668 19602,14668 L 2496,14668 C 2201,14668 1962,14429 1962,14134 L 1962,11999 Z"/>
      </g>
     </g>
     <g class="com.sun.star.drawing.ClosedBezierShape">
      <g id="id7">
       <rect class="BoundingBox" stroke="none" fill="none" x="10066" y="12675" width="2009" height="780"/>
       <path fill="rgb(0,0,0)" stroke="none" d="M 10066,13441 L 10066,12688 10166,12688 10166,13441 10066,13441 Z M 10684,13373 C 10650,13402 10617,13423 10586,13435 10554,13447 10520,13453 10484,13453 10424,13453 10378,13438 10346,13409 10314,13380 10298,13342 10298,13297 10298,13270 10304,13246 10316,13224 10328,13201 10344,13184 10364,13171 10383,13157 10405,13147 10430,13140 10448,13135 10476,13131 10512,13126 10587,13118 10642,13107 10677,13095 10677,13082 10677,13074 10677,13070 10677,13033 10669,13006 10651,12991 10628,12970 10592,12959 10546,12959 10503,12959 10471,12967 10450,12982 10429,12998 10414,13025 10404,13063 L 10314,13051 C 10322,13012 10335,12981 10354,12957 10373,12933 10400,12915 10436,12902 10471,12889 10513,12883 10559,12883 10606,12883 10644,12889 10672,12900 10702,12910 10723,12924 10737,12941 10750,12957 10760,12978 10765,13004 10769,13019 10770,13048 10770,13089 L 10770,13212 C 10770,13298 10772,13352 10776,13375 10780,13398 10788,13420 10799,13441 L 10703,13441 C 10693,13421 10687,13399 10684,13373 Z M 10677,13167 C 10643,13180 10593,13192 10526,13202 10488,13207 10461,13213 10445,13220 10430,13227 10417,13237 10409,13250 10400,13264 10396,13278 10396,13294 10396,13319 10406,13339 10424,13356 10443,13372 10470,13380 10506,13380 10542,13380 10573,13373 10601,13357 10628,13342 10649,13320 10662,13293 10672,13272 10677,13242 10677,13201 L 10677,13167 Z M 11269,13373 C 11235,13402 11202,13423 11170,13435 11138,13447 11105,13453 11068,13453 11008,13453 10962,13438 10930,13409 10898,13380 10882,13342 10882,13297 10882,13270 10888,13246 10900,13224 10912,13201 10928,13184 10948,13171 10968,13157 10990,13147 11014,13140 11033,13135 11060,13131 11096,13126 11171,13118 11226,13107 11261,13095 11261,13082 11262,13074 11262,13070 11262,13033 11253,13006 11236,12991 11212,12970 11177,12959 11130,12959 11087,12959 11055,12967 11034,12982 11013,12998 10998,13025 10988,13063 L 10898,13051 C 10906,13012 10920,12981 10938,12957 10957,12933 10985,12915 11020,12902 11056,12889 11097,12883 11144,12883 11190,12883 11228,12889 11257,12900 11286,12910 11307,12924 11321,12941 11335,12957 11344,12978 11350,13004 11353,13019 11355,13048 11355,13089 L 11355,13212 C 11355,13298 11356,13352 11360,13375 11364,13398 11372,13420 11384,13441 L 11287,13441 C 11278,13421 11271,13399 11269,13373 Z M 11261,13167 C 11228,13180 11177,13192 11110,13202 11072,13207 11045,13213 11030,13220 11014,13227 11002,13237 10993,13250 10985,13264 10980,13278 10980,13294 10980,13319 10990,13339 11008,13356 11027,13372 11054,13380 11090,13380 11126,13380 11157,13373 11185,13357 11213,13342 11233,13320 11246,13293 11256,13272 11261,13242 11261,13201 L 11261,13167 Z M 11475,13199 L 11569,13190 C 11574,13228 11584,13259 11600,13283 11617,13307 11642,13327 11676,13342 11710,13357 11749,13364 11791,13364 11829,13364 11863,13358 11892,13347 11921,13336 11943,13320 11957,13301 11971,13281 11978,13260 11978,13236 11978,13213 11971,13192 11958,13174 11944,13157 11921,13142 11890,13130 11870,13122 11825,13110 11756,13093 11687,13077 11639,13061 11611,13046 11575,13027 11548,13004 11530,12976 11513,12948 11504,12917 11504,12882 11504,12845 11515,12809 11536,12776 11558,12743 11589,12718 11631,12701 11672,12684 11718,12675 11769,12675 11825,12675 11874,12684 11916,12702 11959,12720 11992,12747 12014,12781 12037,12816 12050,12856 12052,12900 L 11956,12907 C 11951,12860 11934,12824 11904,12800 11874,12775 11831,12763 11773,12763 11713,12763 11669,12774 11641,12796 11614,12818 11600,12845 11600,12876 11600,12903 11610,12925 11629,12943 11648,12960 11698,12978 11779,12996 11860,13015 11916,13031 11946,13044 11990,13064 12022,13090 12043,13121 12064,13152 12074,13188 12074,13228 12074,13268 12063,13306 12040,13341 12017,13377 11984,13404 11941,13424 11898,13444 11850,13454 11796,13454 11728,13454 11671,13444 11625,13424 11579,13404 11543,13374 11517,13334 11491,13294 11477,13249 11475,13199 Z"/>
      </g>
     </g>
     <g class="com.sun.star.drawing.ClosedBezierShape">
      <g id="id8">
       <rect class="BoundingBox" stroke="none" fill="none" x="3721" y="7864" width="14627" height="3204"/>
       <path fill="rgb(207,226,243)" stroke="none" d="M 3721,8398 C 3721,8103 3960,7864 4255,7864 L 17813,7864 C 17955,7864 18091,7920 18191,8020 18291,8120 18347,8256 18347,8398 L 18347,10533 C 18347,10828 18108,11067 17813,11067 L 4255,11067 C 3960,11067 3721,10828 3721,10533 L 3721,8398 Z"/>
      </g>
     </g>
     <g class="com.sun.star.drawing.ClosedBezierShape">
      <g id="id9">
       <rect class="BoundingBox" stroke="none" fill="none" x="3710" y="7853" width="14649" height="3226"/>
       <path fill="none" stroke="rgb(0,0,0)" stroke-width="22" stroke-linejoin="round" d="M 3721,8398 C 3721,8103 3960,7864 4255,7864 L 17813,7864 C 17955,7864 18091,7920 18191,8020 18291,8120 18347,8256 18347,8398 L 18347,10533 C 18347,10828 18108,11067 17813,11067 L 4255,11067 C 3960,11067 3721,10828 3721,10533 L 3721,8398 Z"/>
      </g>
     </g>
     <g class="com.sun.star.drawing.ClosedBezierShape">
      <g id="id10">
       <rect class="BoundingBox" stroke="none" fill="none" x="9773" y="9072" width="2522" height="781"/>
       <path fill="rgb(0,0,0)" stroke="none" d="M 10338,9575 L 10438,9600 C 10417,9682 10379,9744 10325,9787 10271,9830 10205,9852 10127,9852 10045,9852 9979,9835 9929,9802 9878,9769 9839,9721 9813,9659 9786,9596 9773,9529 9773,9457 9773,9378 9788,9310 9818,9252 9848,9193 9891,9149 9946,9119 10001,9088 10062,9073 10128,9073 10203,9073 10266,9092 10318,9130 10369,9169 10405,9223 10425,9292 L 10327,9315 C 10310,9261 10284,9221 10251,9196 10218,9171 10176,9158 10126,9158 10068,9158 10020,9172 9981,9200 9942,9228 9915,9265 9899,9312 9883,9358 9876,9406 9876,9456 9876,9520 9885,9576 9904,9624 9922,9671 9951,9707 9990,9731 10030,9754 10073,9766 10118,9766 10174,9766 10221,9750 10260,9718 10298,9686 10325,9638 10338,9575 Z M 10904,9771 C 10870,9800 10837,9821 10805,9833 10774,9845 10740,9851 10704,9851 10644,9851 10598,9836 10565,9807 10533,9778 10517,9740 10517,9695 10517,9668 10523,9644 10535,9622 10548,9599 10564,9582 10583,9569 10603,9555 10625,9545 10650,9538 10668,9533 10695,9529 10732,9524 10806,9516 10861,9505 10896,9493 10897,9480 10897,9472 10897,9468 10897,9431 10888,9404 10871,9389 10847,9368 10812,9357 10765,9357 10722,9357 10690,9365 10669,9380 10649,9396 10633,9423 10624,9461 L 10533,9449 C 10541,9410 10555,9379 10574,9355 10593,9331 10620,9313 10655,9300 10691,9287 10732,9281 10779,9281 10825,9281 10863,9287 10892,9298 10921,9308 10943,9322 10956,9339 10970,9355 10980,9376 10985,9402 10988,9417 10990,9446 10990,9487 L 10990,9610 C 10990,9696 10992,9750 10996,9773 10999,9796 11007,9818 11019,9839 L 10922,9839 C 10913,9819 10907,9797 10904,9771 Z M 10896,9565 C 10863,9578 10813,9590 10746,9600 10708,9605 10681,9611 10665,9618 10649,9625 10637,9635 10628,9648 10620,9662 10616,9676 10616,9692 10616,9717 10625,9737 10644,9754 10662,9770 10690,9778 10725,9778 10761,9778 10793,9771 10820,9755 10848,9740 10868,9718 10881,9691 10891,9670 10896,9640 10896,9599 L 10896,9565 Z M 11488,9771 C 11454,9800 11421,9821 11389,9833 11358,9845 11324,9851 11288,9851 11228,9851 11182,9836 11150,9807 11117,9778 11101,9740 11101,9695 11101,9668 11107,9644 11120,9622 11132,9599 11148,9582 11167,9569 11187,9555 11209,9545 11234,9538 11252,9533 11279,9529 11316,9524 11390,9516 11445,9505 11481,9493 11481,9480 11481,9472 11481,9468 11481,9431 11472,9404 11455,9389 11431,9368 11396,9357 11350,9357 11306,9357 11274,9365 11254,9380 11233,9396 11218,9423 11208,9461 L 11117,9449 C 11126,9410 11139,9379 11158,9355 11177,9331 11204,9313 11240,9300 11275,9287 11316,9281 11363,9281 11409,9281 11447,9287 11476,9298 11505,9308 11527,9322 11540,9339 11554,9355 11564,9376 11569,9402 11572,9417 11574,9446 11574,9487 L 11574,9610 C 11574,9696 11576,9750 11580,9773 11584,9796 11591,9818 11603,9839 L 11507,9839 C 11497,9819 11491,9797 11488,9771 Z M 11481,9565 C 11447,9578 11397,9590 11330,9600 11292,9605 11265,9611 11249,9618 11233,9625 11221,9635 11213,9648 11204,9662 11200,9676 11200,9692 11200,9717 11209,9737 11228,9754 11247,9770 11274,9778 11310,9778 11345,9778 11377,9771 11404,9755 11432,9740 11453,9718 11466,9691 11476,9670 11481,9640 11481,9599 L 11481,9565 Z M 11695,9597 L 11789,9588 C 11793,9626 11803,9657 11820,9681 11836,9705 11861,9725 11896,9740 11930,9755 11968,9762 12011,9762 12049,9762 12082,9756 12111,9745 12140,9734 12162,9718 12176,9699 12190,9679 12197,9658 12197,9634 12197,9611 12191,9590 12177,9572 12163,9555 12141,9540 12109,9528 12089,9520 12045,9508 11976,9491 11906,9475 11858,9459 11830,9444 11794,9425 11768,9402 11750,9374 11732,9346 11724,9315 11724,9280 11724,9243 11734,9207 11756,9174 11777,9141 11809,9116 11850,9099 11892,9082 11938,9073 11988,9073 12044,9073 12093,9082 12136,9100 12178,9118 12211,9145 12234,9179 12257,9214 12269,9254 12271,9298 L 12176,9305 C 12170,9258 12153,9222 12123,9198 12094,9173 12050,9161 11992,9161 11932,9161 11888,9172 11861,9194 11833,9216 11820,9243 11820,9274 11820,9301 11829,9323 11849,9341 11868,9358 11918,9376 11999,9394 12080,9413 12135,9429 12165,9442 12209,9462 12241,9488 12262,9519 12283,9550 12294,9586 12294,9626 12294,9666 12282,9704 12259,9739 12236,9775 12203,9802 12160,9822 12117,9842 12069,9852 12016,9852 11947,9852 11890,9842 11844,9822 11798,9802 11762,9772 11736,9732 11710,9692 11696,9647 11695,9597 Z"/>
      </g>
     </g>
     <g class="com.sun.star.drawing.ClosedBezierShape">
      <g id="id11">
       <rect class="BoundingBox" stroke="none" fill="none" x="5048" y="4262" width="11944" height="3204"/>
       <path fill="rgb(207,226,243)" stroke="none" d="M 5048,4796 C 5048,4501 5287,4262 5582,4262 L 16457,4262 C 16599,4262 16735,4318 16835,4418 16935,4518 16991,4654 16991,4796 L 16991,6931 C 16991,7226 16752,7465 16457,7465 L 5582,7465 C 5287,7465 5048,7226 5048,6931 L 5048,4796 Z"/>
      </g>
     </g>
     <g class="com.sun.star.drawing.ClosedBezierShape">
      <g id="id12">
       <rect class="BoundingBox" stroke="none" fill="none" x="5037" y="4251" width="11966" height="3226"/>
       <path fill="none" stroke="rgb(0,0,0)" stroke-width="22" stroke-linejoin="round" d="M 5048,4796 C 5048,4501 5287,4262 5582,4262 L 16457,4262 C 16599,4262 16735,4318 16835,4418 16935,4518 16991,4654 16991,4796 L 16991,6931 C 16991,7226 16752,7465 16457,7465 L 5582,7465 C 5287,7465 5048,7226 5048,6931 L 5048,4796 Z"/>
      </g>
     </g>
     <g class="com.sun.star.drawing.ClosedBezierShape">
      <g id="id13">
       <rect class="BoundingBox" stroke="none" fill="none" x="9816" y="5471" width="2435" height="781"/>
       <path fill="rgb(0,0,0)" stroke="none" d="M 9816,6238 L 9816,5485 10100,5485 C 10150,5485 10188,5487 10214,5492 10251,5498 10282,5510 10307,5527 10332,5545 10352,5569 10367,5600 10382,5631 10390,5665 10390,5703 10390,5767 10370,5821 10329,5865 10288,5909 10215,5932 10108,5932 L 9916,5932 9916,6238 9816,6238 Z M 9916,5843 L 10110,5843 C 10174,5843 10220,5831 10247,5807 10274,5783 10288,5749 10288,5706 10288,5674 10280,5647 10264,5625 10248,5602 10227,5588 10201,5580 10184,5576 10153,5574 10108,5574 L 9916,5574 9916,5843 Z M 10860,6170 C 10826,6199 10793,6220 10761,6232 10730,6244 10696,6250 10660,6250 10600,6250 10554,6235 10522,6206 10490,6177 10474,6139 10474,6094 10474,6067 10480,6043 10492,6021 10504,5998 10520,5981 10540,5968 10559,5954 10581,5944 10606,5937 10624,5932 10651,5928 10688,5923 10762,5915 10817,5904 10853,5892 10853,5879 10853,5871 10853,5867 10853,5830 10844,5803 10827,5788 10803,5767 10768,5756 10722,5756 10678,5756 10646,5764 10626,5779 10605,5795 10590,5822 10580,5860 L 10490,5848 C 10498,5809 10511,5778 10530,5754 10549,5730 10576,5712 10612,5699 10647,5686 10688,5680 10735,5680 10782,5680 10819,5686 10848,5697 10877,5707 10899,5721 10913,5738 10926,5754 10936,5775 10941,5801 10945,5816 10946,5845 10946,5886 L 10946,6009 C 10946,6095 10948,6149 10952,6172 10956,6195 10964,6217 10975,6238 L 10879,6238 C 10869,6218 10863,6196 10860,6170 Z M 10853,5964 C 10819,5977 10769,5989 10702,5999 10664,6004 10637,6010 10621,6017 10606,6024 10593,6034 10585,6047 10576,6061 10572,6075 10572,6091 10572,6116 10581,6136 10600,6153 10619,6169 10646,6177 10682,6177 10717,6177 10749,6170 10777,6154 10804,6139 10825,6117 10838,6090 10848,6069 10853,6039 10853,5998 L 10853,5964 Z M 11444,6170 C 11410,6199 11377,6220 11346,6232 11314,6244 11280,6250 11244,6250 11184,6250 11138,6235 11106,6206 11074,6177 11058,6139 11058,6094 11058,6067 11064,6043 11076,6021 11088,5998 11104,5981 11124,5968 11143,5954 11165,5944 11190,5937 11208,5932 11236,5928 11272,5923 11347,5915 11402,5904 11437,5892 11437,5879 11437,5871 11437,5867 11437,5830 11429,5803 11411,5788 11388,5767 11352,5756 11306,5756 11263,5756 11231,5764 11210,5779 11189,5795 11174,5822 11164,5860 L 11074,5848 C 11082,5809 11095,5778 11114,5754 11133,5730 11160,5712 11196,5699 11231,5686 11273,5680 11319,5680 11366,5680 11404,5686 11433,5697 11462,5707 11483,5721 11497,5738 11510,5754 11520,5775 11526,5801 11529,5816 11530,5845 11530,5886 L 11530,6009 C 11530,6095 11532,6149 11536,6172 11540,6195 11548,6217 11559,6238 L 11463,6238 C 11453,6218 11447,6196 11444,6170 Z M 11437,5964 C 11403,5977 11353,5989 11286,5999 11248,6004 11221,6010 11205,6017 11190,6024 11178,6034 11169,6047 11160,6061 11156,6075 11156,6091 11156,6116 11166,6136 11184,6153 11203,6169 11230,6177 11266,6177 11302,6177 11333,6170 11361,6154 11389,6139 11409,6117 11422,6090 11432,6069 11437,6039 11437,5998 L 11437,5964 Z M 11651,5996 L 11745,5987 C 11750,6025 11760,6056 11776,6080 11792,6104 11818,6124 11852,6139 11886,6154 11924,6161 11967,6161 12005,6161 12039,6155 12068,6144 12097,6133 12118,6117 12133,6098 12147,6078 12154,6057 12154,6033 12154,6010 12147,5989 12133,5971 12120,5954 12097,5939 12066,5927 12046,5919 12001,5907 11932,5890 11863,5874 11814,5858 11787,5843 11751,5824 11724,5801 11706,5773 11689,5745 11680,5714 11680,5679 11680,5642 11691,5606 11712,5573 11734,5540 11765,5515 11806,5498 11848,5481 11894,5472 11945,5472 12000,5472 12050,5481 12092,5499 12135,5517 12167,5544 12190,5578 12213,5613 12226,5653 12227,5697 L 12132,5704 C 12127,5657 12109,5621 12080,5597 12050,5572 12007,5560 11949,5560 11888,5560 11845,5571 11817,5593 11790,5615 11776,5642 11776,5673 11776,5700 11786,5722 11805,5740 11824,5757 11874,5775 11955,5793 12036,5812 12092,5828 12122,5841 12165,5861 12198,5887 12218,5918 12239,5949 12250,5985 12250,6025 12250,6065 12238,6103 12215,6138 12193,6174 12160,6201 12117,6221 12074,6241 12025,6251 11972,6251 11904,6251 11847,6241 11801,6221 11755,6201 11719,6171 11693,6131 11666,6091 11653,6046 11651,5996 Z"/>
      </g>
     </g>
     <g class="com.sun.star.drawing.ClosedBezierShape">
      <g id="id14">
       <rect class="BoundingBox" stroke="none" fill="none" x="6750" y="660" width="8368" height="3204"/>
       <path fill="rgb(207,226,243)" stroke="none" d="M 6750,1194 C 6750,899 6989,660 7284,660 L 14583,660 C 14724,660 14860,716 14960,816 15060,916 15117,1052 15117,1194 L 15117,3329 C 15117,3624 14878,3863 14583,3863 L 7284,3863 C 6989,3863 6750,3624 6750,3329 L 6750,1194 Z"/>
      </g>
     </g>
     <g class="com.sun.star.drawing.ClosedBezierShape">
      <g id="id15">
       <rect class="BoundingBox" stroke="none" fill="none" x="6739" y="649" width="8390" height="3226"/>
       <path fill="none" stroke="rgb(0,0,0)" stroke-width="22" stroke-linejoin="round" d="M 6750,1194 C 6750,899 6989,660 7284,660 L 14583,660 C 14724,660 14860,716 14960,816 15060,916 15117,1052 15117,1194 L 15117,3329 C 15117,3624 14878,3863 14583,3863 L 7284,3863 C 6989,3863 6750,3624 6750,3329 L 6750,1194 Z"/>
      </g>
     </g>
     <g class="com.sun.star.drawing.ClosedBezierShape">
      <g id="id16">
       <rect class="BoundingBox" stroke="none" fill="none" x="9764" y="1869" width="2371" height="781"/>
       <path fill="rgb(0,0,0)" stroke="none" d="M 9764,2636 L 9764,1883 10271,1883 10271,1972 9864,1972 9864,2205 10216,2205 10216,2294 9864,2294 9864,2636 9764,2636 Z M 10744,2568 C 10710,2597 10677,2618 10645,2630 10614,2642 10580,2648 10544,2648 10484,2648 10438,2633 10406,2604 10374,2575 10357,2537 10357,2492 10357,2465 10363,2441 10376,2419 10388,2396 10404,2379 10423,2366 10443,2352 10465,2342 10490,2335 10508,2330 10535,2326 10572,2321 10646,2313 10701,2302 10737,2290 10737,2277 10737,2269 10737,2265 10737,2228 10728,2201 10711,2186 10687,2165 10652,2154 10606,2154 10562,2154 10530,2162 10510,2177 10489,2193 10474,2220 10464,2258 L 10374,2246 C 10382,2207 10395,2176 10414,2152 10433,2128 10460,2110 10496,2097 10531,2084 10572,2078 10619,2078 10666,2078 10703,2084 10732,2095 10761,2105 10783,2119 10796,2136 10810,2152 10820,2173 10825,2199 10828,2214 10830,2243 10830,2284 L 10830,2407 C 10830,2493 10832,2547 10836,2570 10840,2593 10847,2615 10859,2636 L 10763,2636 C 10753,2616 10747,2594 10744,2568 Z M 10737,2362 C 10703,2375 10653,2387 10586,2397 10548,2402 10521,2408 10505,2415 10489,2422 10477,2432 10469,2445 10460,2459 10456,2473 10456,2489 10456,2514 10465,2534 10484,2551 10503,2567 10530,2575 10566,2575 10601,2575 10633,2568 10660,2552 10688,2537 10709,2515 10722,2488 10732,2467 10737,2437 10737,2396 L 10737,2362 Z M 11328,2568 C 11294,2597 11261,2618 11230,2630 11198,2642 11164,2648 11128,2648 11068,2648 11022,2633 10990,2604 10958,2575 10942,2537 10942,2492 10942,2465 10948,2441 10960,2419 10972,2396 10988,2379 11008,2366 11027,2352 11049,2342 11074,2335 11092,2330 11120,2326 11156,2321 11231,2313 11286,2302 11321,2290 11321,2277 11321,2269 11321,2265 11321,2228 11313,2201 11295,2186 11272,2165 11236,2154 11190,2154 11147,2154 11115,2162 11094,2177 11073,2193 11058,2220 11048,2258 L 10958,2246 C 10966,2207 10979,2176 10998,2152 11017,2128 11044,2110 11080,2097 11115,2084 11156,2078 11203,2078 11250,2078 11287,2084 11316,2095 11346,2105 11367,2119 11381,2136 11394,2152 11404,2173 11409,2199 11413,2214 11414,2243 11414,2284 L 11414,2407 C 11414,2493 11416,2547 11420,2570 11424,2593 11432,2615 11443,2636 L 11347,2636 C 11337,2616 11331,2594 11328,2568 Z M 11321,2362 C 11287,2375 11237,2387 11170,2397 11132,2402 11105,2408 11089,2415 11074,2422 11061,2432 11053,2445 11044,2459 11040,2473 11040,2489 11040,2514 11049,2534 11068,2551 11087,2567 11114,2575 11150,2575 11185,2575 11217,2568 11245,2552 11272,2537 11293,2515 11306,2488 11316,2467 11321,2437 11321,2396 L 11321,2362 Z M 11535,2394 L 11629,2385 C 11633,2423 11644,2454 11660,2478 11676,2502 11702,2522 11736,2537 11770,2552 11808,2559 11851,2559 11889,2559 11923,2553 11952,2542 11981,2531 12002,2515 12017,2496 12031,2476 12038,2455 12038,2431 12038,2408 12031,2387 12017,2369 12004,2352 11981,2337 11950,2325 11929,2317 11885,2305 11816,2288 11747,2272 11698,2256 11670,2241 11635,2222 11608,2199 11590,2171 11573,2143 11564,2112 11564,2077 11564,2040 11575,2004 11596,1971 11618,1938 11649,1913 11690,1896 11732,1879 11778,1870 11828,1870 11884,1870 11933,1879 11976,1897 12018,1915 12051,1942 12074,1976 12097,2011 12109,2051 12111,2095 L 12016,2102 C 12011,2055 11993,2019 11964,1995 11934,1970 11890,1958 11833,1958 11772,1958 11729,1969 11701,1991 11674,2013 11660,2040 11660,2071 11660,2098 11670,2120 11689,2138 11708,2155 11758,2173 11839,2191 11920,2210 11976,2226 12006,2239 12049,2259 12082,2285 12102,2316 12123,2347 12134,2383 12134,2423 12134,2463 12122,2501 12099,2536 12076,2572 12044,2599 12000,2619 11958,2639 11909,2649 11856,2649 11788,2649 11731,2639 11685,2619 11639,2599 11603,2569 11576,2529 11550,2489 11536,2444 11535,2394 Z"/>
      </g>
     </g>
    </g>
   </g>
  </g>
 </g>
</svg>