<?xml version="1.0" encoding="UTF-8"?>
<!DOCTYPE svg PUBLIC "-//W3C//DTD SVG 1.1//EN" "http://www.w3.org/Graphics/SVG/1.1/DTD/svg11.dtd">
<svg version="1.2" width="210.01mm" height="157.51mm" viewBox="0 0 21001 15751" preserveAspectRatio="xMidYMid" fill-rule="evenodd" stroke-width="28.222" stroke-linejoin="round" xmlns="http://www.w3.org/2000/svg" xmlns:ooo="http://xml.openoffice.org/svg/export" xmlns:xlink="http://www.w3.org/1999/xlink" xmlns:presentation="http://sun.com/xmlns/staroffice/presentation" xmlns:smil="http://www.w3.org/2001/SMIL20/" xmlns:anim="urn:oasis:names:tc:opendocument:xmlns:animation:1.0" xml:space="preserve">
 <defs class="ClipPathGroup">
  <clipPath id="presentation_clip_path" clipPathUnits="userSpaceOnUse">
   <rect x="0" y="0" width="21001" height="15751"/>
  </clipPath>
 </defs>
 <defs class="TextShapeIndex">
  <g ooo:slide="id1" ooo:id-list="id3 id4 id5 id6 id7 id8 id9 id10 id11 id12 id13 id14 id15 id16"/>
 </defs>
 <defs class="EmbeddedBulletChars">
  <g id="bullet-char-template(57356)" transform="scale(0.00048828125,-0.00048828125)">
   <path d="M 580,1141 L 1163,571 580,0 -4,571 580,1141 Z"/>
  </g>
  <g id="bullet-char-template(57354)" transform="scale(0.00048828125,-0.00048828125)">
   <path d="M 8,1128 L 1137,1128 1137,0 8,0 8,1128 Z"/>
  </g>
  <g id="bullet-char-template(10146)" transform="scale(0.00048828125,-0.00048828125)">
   <path d="M 174,0 L 602,739 174,1481 1456,739 174,0 Z M 1358,739 L 309,1346 659,739 1358,739 Z"/>
  </g>
  <g id="bullet-char-template(10132)" transform="scale(0.00048828125,-0.00048828125)">
   <path d="M 2015,739 L 1276,0 717,0 1260,543 174,543 174,936 1260,936 717,1481 1274,1481 2015,739 Z"/>
  </g>
  <g id="bullet-char-template(10007)" transform="scale(0.00048828125,-0.00048828125)">
   <path d="M 0,-2 C -7,14 -16,27 -25,37 L 356,567 C 262,823 215,952 215,954 215,979 228,992 255,992 264,992 276,990 289,987 310,991 331,999 354,1012 L 381,999 492,748 772,1049 836,1024 860,1049 C 881,1039 901,1025 922,1006 886,937 835,863 770,784 769,783 710,716 594,584 L 774,223 C 774,196 753,168 711,139 L 727,119 C 717,90 699,76 672,76 641,76 570,178 457,381 L 164,-76 C 142,-110 111,-127 72,-127 30,-127 9,-110 8,-76 1,-67 -2,-52 -2,-32 -2,-23 -1,-13 0,-2 Z"/>
  </g>
  <g id="bullet-char-template(10004)" transform="scale(0.00048828125,-0.00048828125)">
   <path d="M 285,-33 C 182,-33 111,30 74,156 52,228 41,333 41,471 41,549 55,616 82,672 116,743 169,778 240,778 293,778 328,747 346,684 L 369,508 C 377,444 397,411 428,410 L 1163,1116 C 1174,1127 1196,1133 1229,1133 1271,1133 1292,1118 1292,1087 L 1292,965 C 1292,929 1282,901 1262,881 L 442,47 C 390,-6 338,-33 285,-33 Z"/>
  </g>
  <g id="bullet-char-template(9679)" transform="scale(0.00048828125,-0.00048828125)">
   <path d="M 813,0 C 632,0 489,54 383,161 276,268 223,411 223,592 223,773 276,916 383,1023 489,1130 632,1184 813,1184 992,1184 1136,1130 1245,1023 1353,916 1407,772 1407,592 1407,412 1353,268 1245,161 1136,54 992,0 813,0 Z"/>
  </g>
  <g id="bullet-char-template(8226)" transform="scale(0.00048828125,-0.00048828125)">
   <path d="M 346,457 C 273,457 209,483 155,535 101,586 74,649 74,723 74,796 101,859 155,911 209,963 273,989 346,989 419,989 480,963 531,910 582,859 608,796 608,723 608,648 583,586 532,535 482,483 420,457 346,457 Z"/>
  </g>
  <g id="bullet-char-template(8211)" transform="scale(0.00048828125,-0.00048828125)">
   <path d="M -4,459 L 1135,459 1135,606 -4,606 -4,459 Z"/>
  </g>
 </defs>
 <defs class="TextEmbeddedBitmaps"/>
 <g class="SlideGroup">
  <g>
   <g id="id1" class="Slide" clip-path="url(#presentation_clip_path)">
    <g class="Page">
     <g class="com.sun.star.drawing.PolyPolygonShape">
      <g id="id3">
       <rect class="BoundingBox" stroke="none" fill="none" x="0" y="0" width="21002" height="15752"/>
      </g>
     </g>
     <g class="com.sun.star.drawing.PolyPolygonShape">
      <g id="id4">
       <rect class="BoundingBox" stroke="none" fill="none" x="0" y="0" width="21002" height="15752"/>
      </g>
     </g>
     <g class="com.sun.star.drawing.ClosedBezierShape">
      <g id="id5">
       <rect class="BoundingBox" stroke="none" fill="none" x="1962" y="11465" width="18175" height="3205"/>
       <path fill="rgb(207,226,243)" stroke="none" d="M 1962,11999 C 1962,11704 2201,11465 2496,11465 L 19602,11465 C 19744,11465 19880,11521 19980,11621 20080,11721 20136,11857 20136,11999 L 20136,14134 C 20136,14429 19897,14668 19602,14668 L 2496,14668 C 2201,14668 1962,14429 1962,14134 L 1962,11999 Z"/>
      </g>
     </g>
     <g class="com.sun.star.drawing.ClosedBezierShape">
      <g id="id6">
       <rect class="BoundingBox" stroke="none" fill="none" x="1951" y="11454" width="18197" height="3227"/>
       <path fill="none" stroke="rgb(0,0,0)" stroke-width="22" stroke-linejoin="round" d="M 1962,11999 C 1962,11704 2201,11465 2496,11465 L 19602,11465 C 19744,11465 19880,11521 19980,11621 20080,11721 20136,11857 20136,11999 L 20136,14134 C 20136,14429 19897,14668 19602,14668 L 2496,14668 C 2201,14668 1962,14429 1962,14134 L 1962,11999 Z"/>
      </g>
     </g>
     <g class="com.sun.star.drawing.ClosedBezierShape">
      <g id="id7">
       <rect class="BoundingBox" stroke="none" fill="none" x="7172" y="12687" width="7719" height="767"/>
       <path fill="rgb(0,0,0)" stroke="none" d="M 7463,13441 L 7172,12688 7280,12688 7475,13235 C 7491,13278 7504,13319 7515,13358 7526,13317 7540,13276 7555,13235 L 7758,12688 7859,12688 7565,13441 7463,13441 Z M 7937,12794 L 7937,12688 8030,12688 8030,12794 7937,12794 Z M 7937,13441 L 7937,12895 8030,12895 8030,13441 7937,13441 Z M 8169,13441 L 8169,12895 8252,12895 8252,12978 C 8274,12939 8293,12914 8311,12902 8329,12889 8349,12883 8370,12883 8401,12883 8433,12893 8465,12913 L 8433,12998 C 8411,12985 8388,12979 8366,12979 8345,12979 8327,12985 8311,12997 8295,13009 8284,13026 8277,13047 8267,13080 8262,13116 8262,13155 L 8262,13441 8169,13441 Z M 8721,13358 L 8735,13440 C 8709,13445 8686,13448 8665,13448 8631,13448 8606,13443 8587,13432 8569,13421 8556,13407 8548,13390 8541,13373 8537,13336 8537,13281 L 8537,12967 8469,12967 8469,12895 8537,12895 8537,12760 8629,12705 8629,12895 8721,12895 8721,12967 8629,12967 8629,13286 C 8629,13312 8630,13329 8634,13337 8637,13344 8642,13350 8649,13355 8657,13359 8667,13362 8681,13362 8691,13362 8705,13360 8721,13358 Z M 9169,13441 L 9169,13361 C 9126,13422 9069,13453 8996,13453 8964,13453 8934,13447 8906,13434 8878,13422 8857,13407 8844,13388 8830,13369 8821,13346 8815,13319 8812,13301 8810,13272 8810,13233 L 8810,12895 8902,12895 8902,13198 C 8902,13246 8904,13278 8908,13295 8913,13320 8926,13339 8944,13353 8963,13366 8987,13373 9014,13373 9042,13373 9068,13366 9092,13352 9117,13338 9134,13319 9144,13294 9154,13269 9159,13234 9159,13187 L 9159,12895 9251,12895 9251,13441 9169,13441 Z M 9751,13373 C 9717,13402 9684,13423 9652,13435 9621,13447 9587,13453 9551,13453 9491,13453 9445,13438 9413,13409 9380,13380 9364,13342 9364,13297 9364,13270 9370,13246 9383,13224 9395,13201 9411,13184 9430,13171 9450,13157 9472,13147 9497,13140 9515,13135 9542,13131 9579,13126 9653,13118 9708,13107 9744,13095 9744,13082 9744,13074 9744,13070 9744,13033 9735,13006 9718,12991 9694,12970 9659,12959 9613,12959 9569,12959 9537,12967 9517,12982 9496,12998 9481,13025 9471,13063 L 9380,13051 C 9389,13012 9402,12981 9421,12957 9440,12933 9467,12915 9503,12902 9538,12889 9579,12883 9626,12883 9672,12883 9710,12889 9739,12900 9768,12910 9790,12924 9803,12941 9817,12957 9827,12978 9832,13004 9835,13019 9837,13048 9837,13089 L 9837,13212 C 9837,13298 9839,13352 9843,13375 9847,13398 9854,13420 9866,13441 L 9769,13441 C 9760,13421 9754,13399 9751,13373 Z M 9744,13167 C 9710,13180 9660,13192 9593,13202 9555,13207 9528,13213 9512,13220 9496,13227 9484,13237 9475,13250 9467,13264 9463,13278 9463,13294 9463,13319 9472,13339 9491,13356 9510,13372 9537,13380 9573,13380 9608,13380 9640,13373 9667,13357 9695,13342 9715,13320 9728,13293 9738,13272 9744,13242 9744,13201 L 9744,13167 Z M 9978,13441 L 9978,12688 10070,12688 10070,13441 9978,13441 Z M 10513,13441 L 10513,12688 10663,12688 10841,13221 C 10858,13270 10870,13307 10877,13332 10886,13305 10899,13265 10917,13212 L 11097,12688 11231,12688 11231,13441 11135,13441 11135,12811 10917,13441 10827,13441 10610,12800 10610,13441 10513,13441 Z M 11735,13373 C 11701,13402 11668,13423 11636,13435 11605,13447 11571,13453 11535,13453 11475,13453 11429,13438 11396,13409 11364,13380 11348,13342 11348,13297 11348,13270 11354,13246 11366,13224 11379,13201 11395,13184 11414,13171 11434,13157 11456,13147 11481,13140 11499,13135 11526,13131 11563,13126 11637,13118 11692,13107 11727,13095 11728,13082 11728,13074 11728,13070 11728,13033 11719,13006 11702,12991 11678,12970 11643,12959 11596,12959 11553,12959 11521,12967 11500,12982 11480,12998 11464,13025 11455,13063 L 11364,13051 C 11373,13012 11386,12981 11405,12957 11424,12933 11451,12915 11486,12902 11522,12889 11563,12883 11610,12883 11656,12883 11694,12889 11723,12900 11752,12910 11774,12924 11787,12941 11801,12957 11810,12978 11816,13004 11819,13019 11821,13048 11821,13089 L 11821,13212 C 11821,13298 11823,13352 11827,13375 11830,13398 11838,13420 11850,13441 L 11753,13441 C 11744,13421 11738,13399 11735,13373 Z M 11727,13167 C 11694,13180 11644,13192 11577,13202 11539,13207 11512,13213 11496,13220 11480,13227 11468,13237 11459,13250 11451,13264 11447,13278 11447,13294 11447,13319 11456,13339 11475,13356 11493,13372 11521,13380 11556,13380 11592,13380 11624,13373 11651,13357 11679,13342 11699,13320 11712,13293 11722,13272 11727,13242 11727,13201 L 11727,13167 Z M 12319,13241 L 12410,13253 C 12400,13315 12374,13364 12334,13400 12293,13435 12243,13453 12183,13453 12109,13453 12049,13429 12003,13380 11958,13331 11935,13261 11935,13170 11935,13111 11945,13060 11964,13016 11984,12971 12014,12938 12054,12916 12094,12894 12137,12883 12184,12883 12243,12883 12291,12898 12329,12928 12366,12958 12390,13000 12401,13056 L 12311,13069 C 12303,13033 12288,13005 12266,12987 12244,12968 12218,12959 12187,12959 12141,12959 12103,12976 12074,13009 12045,13042 12030,13095 12030,13167 12030,13241 12044,13294 12072,13327 12100,13360 12137,13377 12182,13377 12218,13377 12249,13366 12273,13344 12297,13321 12313,13287 12319,13241 Z M 12489,13441 L 12489,12688 12581,12688 12581,12958 C 12624,12908 12679,12883 12744,12883 12785,12883 12820,12891 12849,12907 12879,12923 12900,12945 12913,12973 12926,13001 12932,13042 12932,13095 L 12932,13441 12840,13441 12840,13095 C 12840,13049 12830,13015 12810,12994 12790,12973 12762,12962 12725,12962 12698,12962 12672,12970 12648,12984 12624,12998 12607,13017 12597,13042 12586,13066 12581,13099 12581,13142 L 12581,13441 12489,13441 Z M 13073,12794 L 13073,12688 13166,12688 13166,12794 13073,12794 Z M 13073,13441 L 13073,12895 13166,12895 13166,13441 13073,13441 Z M 13306,13441 L 13306,12895 13389,12895 13389,12973 C 13429,12913 13487,12883 13563,12883 13595,12883 13625,12889 13653,12901 13680,12913 13701,12928 13715,12947 13728,12966 13738,12989 13743,13016 13747,13033 13749,13063 13749,13105 L 13749,13441 13656,13441 13656,13109 C 13656,13071 13653,13043 13645,13024 13638,13006 13626,12991 13607,12980 13589,12969 13568,12963 13543,12963 13504,12963 13470,12976 13441,13001 13413,13026 13398,13073 13398,13143 L 13398,13441 13306,13441 Z M 14263,13265 L 14358,13277 C 14343,13333 14315,13376 14274,13407 14234,13438 14182,13453 14119,13453 14039,13453 13976,13428 13929,13379 13883,13330 13859,13261 13859,13173 13859,13081 13883,13010 13930,12959 13977,12908 14039,12883 14114,12883 14186,12883 14246,12908 14292,12958 14338,13007 14361,13077 14361,13167 14361,13172 14361,13180 14361,13191 L 13955,13191 C 13958,13251 13975,13297 14005,13329 14036,13361 14074,13377 14119,13377 14153,13377 14182,13368 14206,13350 14230,13332 14249,13304 14263,13265 Z M 13960,13115 L 14264,13115 C 14260,13070 14248,13035 14229,13012 14200,12977 14162,12959 14115,12959 14072,12959 14037,12973 14008,13002 13979,13030 13963,13068 13960,13115 Z M 14437,13278 L 14529,13263 C 14534,13300 14548,13328 14571,13348 14595,13367 14627,13377 14669,13377 14712,13377 14743,13368 14764,13351 14784,13334 14795,13313 14795,13290 14795,13269 14786,13253 14768,13241 14755,13233 14723,13222 14673,13210 14606,13192 14559,13178 14532,13165 14506,13153 14486,13135 14473,13113 14459,13091 14453,13067 14453,13040 14453,13016 14458,12993 14469,12973 14480,12952 14495,12935 14515,12921 14529,12910 14549,12901 14573,12894 14598,12887 14625,12883 14653,12883 14696,12883 14733,12889 14765,12902 14798,12914 14822,12931 14837,12952 14852,12973 14863,13001 14869,13036 L 14779,13048 C 14775,13020 14763,12998 14743,12983 14723,12967 14696,12959 14660,12959 14617,12959 14587,12966 14569,12980 14551,12994 14542,13011 14542,13029 14542,13041 14546,13052 14553,13062 14561,13072 14572,13080 14588,13086 14598,13090 14625,13098 14670,13110 14735,13127 14781,13142 14807,13153 14832,13164 14853,13180 14867,13201 14882,13223 14890,13249 14890,13280 14890,13311 14881,13340 14863,13367 14845,13395 14819,13416 14785,13431 14751,13446 14713,13453 14670,13453 14599,13453 14545,13438 14508,13409 14471,13379 14448,13336 14437,13278 Z"/>
      </g>
     </g>
     <g class="com.sun.star.drawing.ClosedBezierShape">
      <g id="id8">
       <rect class="BoundingBox" stroke="none" fill="none" x="3721" y="7864" width="14627" height="3204"/>
       <path fill="rgb(207,226,243)" stroke="none" d="M 3721,8398 C 3721,8103 3960,7864 4255,7864 L 17813,7864 C 17955,7864 18091,7920 18191,8020 18291,8120 18347,8256 18347,8398 L 18347,10533 C 18347,10828 18108,11067 17813,11067 L 4255,11067 C 3960,11067 3721,10828 3721,10533 L 3721,8398 Z"/>
      </g>
     </g>
     <g class="com.sun.star.drawing.ClosedBezierShape">
      <g id="id9">
       <rect class="BoundingBox" stroke="none" fill="none" x="3710" y="7853" width="14649" height="3226"/>
       <path fill="none" stroke="rgb(0,0,0)" stroke-width="22" stroke-linejoin="round" d="M 3721,8398 C 3721,8103 3960,7864 4255,7864 L 17813,7864 C 17955,7864 18091,7920 18191,8020 18291,8120 18347,8256 18347,8398 L 18347,10533 C 18347,10828 18108,11067 17813,11067 L 4255,11067 C 3960,11067 3721,10828 3721,10533 L 3721,8398 Z"/>
      </g>
     </g>
     <g class="com.sun.star.drawing.ClosedBezierShape">
      <g id="id10">
       <rect class="BoundingBox" stroke="none" fill="none" x="8547" y="9072" width="4987" height="781"/>
       <path fill="rgb(0,0,0)" stroke="none" d="M 9112,9575 L 9212,9600 C 9191,9682 9153,9744 9099,9787 9045,9830 8979,9852 8900,9852 8819,9852 8753,9835 8703,9802 8652,9769 8613,9721 8587,9659 8560,9596 8547,9529 8547,9457 8547,9378 8562,9310 8592,9252 8622,9193 8664,9149 8720,9119 8775,9088 8836,9073 8902,9073 8977,9073 9040,9092 9092,9130 9143,9169 9179,9223 9199,9292 L 9101,9315 C 9084,9261 9058,9221 9025,9196 8992,9171 8950,9158 8900,9158 8842,9158 8794,9172 8755,9200 8716,9228 8689,9265 8673,9312 8657,9358 8650,9406 8650,9456 8650,9520 8659,9576 8678,9624 8696,9671 8725,9707 8764,9731 8804,9754 8846,9766 8892,9766 8948,9766 8995,9750 9033,9718 9072,9686 9098,9638 9112,9575 Z M 9288,9566 C 9288,9465 9316,9390 9372,9342 9419,9301 9476,9281 9543,9281 9618,9281 9680,9306 9727,9355 9775,9404 9798,9472 9798,9558 9798,9628 9788,9684 9767,9724 9746,9764 9715,9795 9675,9818 9635,9840 9591,9851 9543,9851 9467,9851 9406,9826 9358,9778 9311,9729 9288,9658 9288,9566 Z M 9383,9566 C 9383,9636 9398,9688 9429,9723 9459,9758 9497,9775 9543,9775 9589,9775 9627,9757 9658,9723 9688,9688 9703,9634 9703,9563 9703,9495 9688,9444 9658,9410 9627,9375 9589,9357 9543,9357 9497,9357 9459,9375 9429,9409 9398,9444 9383,9496 9383,9566 Z M 9907,9839 L 9907,9293 9990,9293 9990,9371 C 10030,9311 10087,9281 10163,9281 10196,9281 10226,9287 10253,9299 10281,9311 10301,9326 10315,9345 10329,9364 10338,9387 10344,9414 10347,9431 10349,9461 10349,9503 L 10349,9839 10257,9839 10257,9507 C 10257,9469 10253,9441 10246,9422 10239,9404 10226,9389 10208,9378 10190,9367 10168,9361 10144,9361 10104,9361 10070,9374 10042,9399 10013,9424 9999,9471 9999,9541 L 9999,9839 9907,9839 Z M 10692,9756 L 10705,9838 C 10679,9843 10656,9846 10636,9846 10602,9846 10576,9841 10558,9830 10539,9819 10526,9805 10519,9788 10511,9771 10507,9734 10507,9679 L 10507,9365 10440,9365 10440,9293 10507,9293 10507,9158 10599,9103 10599,9293 10692,9293 10692,9365 10599,9365 10599,9684 C 10599,9710 10601,9727 10604,9735 10607,9742 10613,9748 10620,9753 10627,9757 10638,9760 10652,9760 10662,9760 10675,9758 10692,9756 Z M 11138,9771 C 11103,9800 11071,9821 11039,9833 11007,9845 10974,9851 10937,9851 10877,9851 10831,9836 10799,9807 10767,9778 10751,9740 10751,9695 10751,9668 10757,9644 10769,9622 10781,9599 10797,9582 10817,9569 10837,9555 10859,9545 10883,9538 10902,9533 10929,9529 10965,9524 11040,9516 11095,9505 11130,9493 11130,9480 11130,9472 11130,9468 11130,9431 11122,9404 11104,9389 11081,9368 11046,9357 10999,9357 10956,9357 10924,9365 10903,9380 10882,9396 10867,9423 10857,9461 L 10767,9449 C 10775,9410 10789,9379 10807,9355 10826,9331 10854,9313 10889,9300 10925,9287 10966,9281 11013,9281 11059,9281 11097,9287 11126,9298 11155,9308 11176,9322 11190,9339 11204,9355 11213,9376 11219,9402 11222,9417 11223,9446 11223,9487 L 11223,9610 C 11223,9696 11225,9750 11229,9773 11233,9796 11241,9818 11253,9839 L 11156,9839 C 11147,9819 11140,9797 11138,9771 Z M 11130,9565 C 11097,9578 11046,9590 10979,9600 10941,9605 10914,9611 10899,9618 10883,9625 10871,9635 10862,9648 10854,9662 10849,9676 10849,9692 10849,9717 10859,9737 10877,9754 10896,9770 10923,9778 10959,9778 10995,9778 11026,9771 11054,9755 11082,9740 11102,9718 11115,9691 11125,9670 11130,9640 11130,9599 L 11130,9565 Z M 11367,9192 L 11367,9086 11459,9086 11459,9192 11367,9192 Z M 11367,9839 L 11367,9293 11459,9293 11459,9839 11367,9839 Z M 11600,9839 L 11600,9293 11683,9293 11683,9371 C 11723,9311 11781,9281 11856,9281 11889,9281 11919,9287 11947,9299 11974,9311 11995,9326 12008,9345 12022,9364 12032,9387 12037,9414 12041,9431 12042,9461 12042,9503 L 12042,9839 11950,9839 11950,9507 C 11950,9469 11946,9441 11939,9422 11932,9404 11919,9389 11901,9378 11883,9367 11861,9361 11837,9361 11797,9361 11763,9374 11735,9399 11706,9424 11692,9471 11692,9541 L 11692,9839 11600,9839 Z M 12557,9663 L 12652,9675 C 12637,9731 12609,9774 12568,9805 12528,9836 12476,9851 12413,9851 12333,9851 12270,9826 12223,9777 12176,9728 12153,9659 12153,9571 12153,9479 12177,9408 12224,9357 12271,9306 12332,9281 12408,9281 12480,9281 12540,9306 12586,9356 12632,9405 12655,9475 12655,9565 12655,9570 12655,9578 12655,9589 L 12249,9589 C 12252,9649 12269,9695 12299,9727 12330,9759 12368,9775 12413,9775 12447,9775 12476,9766 12500,9748 12524,9730 12543,9702 12557,9663 Z M 12254,9513 L 12558,9513 C 12553,9468 12542,9433 12523,9410 12493,9375 12455,9357 12409,9357 12366,9357 12330,9371 12302,9400 12273,9428 12257,9466 12254,9513 Z M 12767,9839 L 12767,9293 12850,9293 12850,9376 C 12871,9337 12891,9312 12909,9300 12927,9287 12946,9281 12968,9281 12999,9281 13031,9291 13063,9311 L 13031,9396 C 13008,9383 12986,9377 12963,9377 12943,9377 12925,9383 12909,9395 12893,9407 12882,9424 12875,9445 12864,9478 12859,9514 12859,9553 L 12859,9839 12767,9839 Z M 13081,9676 L 13172,9661 C 13177,9698 13191,9726 13215,9746 13238,9765 13271,9775 13313,9775 13355,9775 13387,9766 13407,9749 13428,9732 13438,9711 13438,9688 13438,9667 13429,9651 13411,9639 13398,9631 13367,9620 13317,9608 13249,9590 13202,9576 13176,9563 13150,9551 13130,9533 13116,9511 13103,9489 13096,9465 13096,9438 13096,9414 13102,9391 13113,9371 13124,9350 13139,9333 13158,9319 13172,9308 13192,9299 13217,9292 13242,9285 13268,9281 13297,9281 13339,9281 13377,9287 13409,9300 13441,9312 13465,9329 13480,9350 13496,9371 13507,9399 13513,9434 L 13422,9446 C 13418,9418 13406,9396 13386,9381 13367,9365 13339,9357 13303,9357 13261,9357 13231,9364 13212,9378 13194,9392 13185,9409 13185,9427 13185,9439 13189,9450 13197,9460 13204,9470 13216,9478 13232,9484 13241,9488 13269,9496 13314,9508 13379,9525 13424,9540 13450,9551 13476,9562 13496,9578 13511,9599 13526,9621 13533,9647 13533,9678 13533,9709 13524,9738 13506,9765 13488,9792 13462,9814 13428,9829 13394,9843 13356,9851 13314,9851 13243,9851 13189,9836 13152,9807 13115,9777 13091,9734 13081,9676 Z"/>
      </g>
     </g>
     <g class="com.sun.star.drawing.ClosedBezierShape">
      <g id="id11">
       <rect class="BoundingBox" stroke="none" fill="none" x="5048" y="4262" width="11944" height="3204"/>
       <path fill="rgb(207,226,243)" stroke="none" d="M 5048,4796 C 5048,4501 5287,4262 5582,4262 L 16457,4262 C 16599,4262 16735,4318 16835,4418 16935,4518 16991,4654 16991,4796 L 16991,6931 C 16991,7226 16752,7465 16457,7465 L 5582,7465 C 5287,7465 5048,7226 5048,6931 L 5048,4796 Z"/>
      </g>
     </g>
     <g class="com.sun.star.drawing.ClosedBezierShape">
      <g id="id12">
       <rect class="BoundingBox" stroke="none" fill="none" x="5037" y="4251" width="11966" height="3226"/>
       <path fill="none" stroke="rgb(0,0,0)" stroke-width="22" stroke-linejoin="round" d="M 5048,4796 C 5048,4501 5287,4262 5582,4262 L 16457,4262 C 16599,4262 16735,4318 16835,4418 16935,4518 16991,4654 16991,4796 L 16991,6931 C 16991,7226 16752,7465 16457,7465 L 5582,7465 C 5287,7465 5048,7226 5048,6931 L 5048,4796 Z"/>
      </g>
     </g>
     <g class="com.sun.star.drawing.ClosedBezierShape">
      <g id="id13">
       <rect class="BoundingBox" stroke="none" fill="none" x="9821" y="5485" width="2357" height="963"/>
       <path fill="rgb(0,0,0)" stroke="none" d="M 9821,6237 L 10110,5485 10217,5485 10525,6237 10412,6237 10324,6010 10009,6010 9927,6237 9821,6237 Z M 10038,5928 L 10293,5928 10215,5720 C 10191,5657 10173,5605 10161,5564 10152,5612 10138,5660 10121,5708 L 10038,5928 Z M 10593,6446 L 10593,5692 10677,5692 10677,5763 C 10697,5735 10719,5715 10744,5701 10769,5687 10799,5680 10835,5680 10881,5680 10922,5692 10958,5716 10994,5740 11020,5774 11038,5817 11057,5861 11066,5909 11066,5961 11066,6016 11056,6067 11036,6111 11016,6156 10986,6190 10948,6214 10910,6238 10870,6250 10828,6250 10797,6250 10770,6243 10745,6230 10721,6217 10701,6201 10685,6181 L 10685,6446 10593,6446 Z M 10676,5968 C 10676,6038 10690,6090 10719,6123 10747,6157 10782,6174 10822,6174 10863,6174 10898,6156 10927,6122 10957,6087 10971,6033 10971,5960 10971,5891 10957,5839 10928,5804 10900,5770 10866,5752 10826,5752 10787,5752 10752,5771 10722,5808 10691,5844 10676,5898 10676,5968 Z M 11177,6446 L 11177,5692 11261,5692 11261,5763 C 11281,5735 11303,5715 11328,5701 11353,5687 11384,5680 11419,5680 11466,5680 11507,5692 11542,5716 11578,5740 11605,5774 11623,5817 11641,5861 11650,5909 11650,5961 11650,6016 11640,6067 11620,6111 11600,6156 11571,6190 11533,6214 11495,6238 11454,6250 11412,6250 11381,6250 11354,6243 11329,6230 11305,6217 11285,6201 11269,6181 L 11269,6446 11177,6446 Z M 11260,5968 C 11260,6038 11275,6090 11303,6123 11331,6157 11366,6174 11406,6174 11447,6174 11482,6156 11511,6122 11541,6087 11556,6033 11556,5960 11556,5891 11541,5839 11512,5804 11484,5770 11450,5752 11410,5752 11371,5752 11336,5771 11306,5808 11276,5844 11260,5898 11260,5968 Z M 11724,6075 L 11816,6060 C 11821,6097 11835,6125 11858,6145 11882,6164 11914,6174 11956,6174 11999,6174 12030,6165 12051,6148 12071,6130 12082,6110 12082,6087 12082,6066 12073,6050 12055,6038 12042,6029 12010,6019 11960,6006 11892,5989 11846,5975 11819,5962 11793,5949 11773,5932 11760,5910 11746,5888 11740,5864 11740,5837 11740,5813 11745,5790 11756,5770 11767,5749 11782,5732 11802,5718 11816,5707 11835,5698 11860,5691 11885,5684 11912,5680 11940,5680 11983,5680 12020,5686 12053,5699 12085,5711 12109,5727 12124,5748 12139,5769 12150,5798 12156,5833 L 12066,5845 C 12062,5817 12050,5795 12030,5780 12010,5764 11983,5756 11947,5756 11904,5756 11874,5763 11856,5777 11838,5791 11829,5807 11829,5826 11829,5838 11833,5849 11840,5859 11848,5868 11859,5877 11875,5883 11885,5887 11912,5895 11957,5907 12022,5924 12068,5938 12094,5950 12120,5961 12140,5977 12154,5998 12169,6019 12177,6046 12177,6077 12177,6108 12168,6137 12150,6164 12132,6191 12106,6212 12072,6227 12038,6242 12000,6250 11957,6250 11886,6250 11832,6235 11795,6206 11758,6176 11735,6132 11724,6075 Z"/>
      </g>
     </g>
     <g class="com.sun.star.drawing.ClosedBezierShape">
      <g id="id14">
       <rect class="BoundingBox" stroke="none" fill="none" x="6750" y="660" width="8368" height="3204"/>
       <path fill="rgb(207,226,243)" stroke="none" d="M 6750,1194 C 6750,899 6989,660 7284,660 L 14583,660 C 14724,660 14860,716 14960,816 15060,916 15117,1052 15117,1194 L 15117,3329 C 15117,3624 14878,3863 14583,3863 L 7284,3863 C 6989,3863 6750,3624 6750,3329 L 6750,1194 Z"/>
      </g>
     </g>
     <g class="com.sun.star.drawing.ClosedBezierShape">
      <g id="id15">
       <rect class="BoundingBox" stroke="none" fill="none" x="6739" y="649" width="8390" height="3226"/>
       <path fill="none" stroke="rgb(0,0,0)" stroke-width="22" stroke-linejoin="round" d="M 6750,1194 C 6750,899 6989,660 7284,660 L 14583,660 C 14724,660 14860,716 14960,816 15060,916 15117,1052 15117,1194 L 15117,3329 C 15117,3624 14878,3863 14583,3863 L 7284,3863 C 6989,3863 6750,3624 6750,3329 L 6750,1194 Z"/>
      </g>
     </g>
     <g class="com.sun.star.drawing.ClosedBezierShape">
      <g id="id16">
       <rect class="BoundingBox" stroke="none" fill="none" x="8743" y="1882" width="4428" height="767"/>
       <path fill="rgb(0,0,0)" stroke="none" d="M 8743,2636 L 8743,1883 9250,1883 9250,1972 8842,1972 8842,2205 9195,2205 9195,2294 8842,2294 8842,2636 8743,2636 Z M 9725,2636 L 9725,2556 C 9682,2617 9625,2648 9552,2648 9520,2648 9490,2642 9462,2629 9434,2617 9413,2602 9400,2583 9386,2564 9377,2541 9371,2514 9368,2496 9366,2467 9366,2428 L 9366,2090 9458,2090 9458,2393 C 9458,2441 9460,2473 9463,2490 9469,2515 9482,2534 9500,2548 9519,2561 9543,2568 9570,2568 9598,2568 9624,2561 9648,2547 9672,2533 9690,2514 9700,2489 9710,2464 9715,2429 9715,2382 L 9715,2090 9807,2090 9807,2636 9725,2636 Z M 9952,2636 L 9952,2090 10035,2090 10035,2168 C 10075,2108 10133,2078 10208,2078 10241,2078 10271,2084 10299,2096 10326,2108 10347,2123 10360,2142 10374,2161 10384,2184 10389,2211 10393,2228 10394,2258 10394,2300 L 10394,2636 10302,2636 10302,2304 C 10302,2266 10298,2238 10291,2219 10284,2201 10271,2186 10253,2175 10235,2164 10213,2158 10189,2158 10149,2158 10115,2171 10087,2196 10058,2221 10044,2268 10044,2338 L 10044,2636 9952,2636 Z M 10891,2436 L 10982,2448 C 10972,2510 10947,2559 10906,2595 10865,2630 10815,2648 10755,2648 10681,2648 10621,2624 10576,2575 10530,2526 10508,2456 10508,2365 10508,2306 10517,2255 10537,2211 10556,2166 10586,2133 10626,2111 10666,2089 10709,2078 10756,2078 10815,2078 10863,2093 10901,2123 10939,2153 10963,2195 10973,2251 L 10884,2264 C 10875,2228 10860,2200 10838,2182 10817,2163 10790,2154 10760,2154 10713,2154 10675,2171 10646,2204 10617,2237 10603,2290 10603,2362 10603,2436 10617,2489 10645,2522 10673,2555 10709,2572 10754,2572 10791,2572 10821,2561 10845,2539 10869,2516 10885,2482 10891,2436 Z M 11262,2553 L 11276,2635 C 11250,2640 11227,2643 11206,2643 11173,2643 11147,2638 11128,2627 11110,2616 11097,2602 11089,2585 11082,2568 11078,2531 11078,2476 L 11078,2162 11010,2162 11010,2090 11078,2090 11078,1955 11170,1900 11170,2090 11262,2090 11262,2162 11170,2162 11170,2481 C 11170,2507 11171,2524 11175,2532 11178,2539 11183,2545 11190,2550 11198,2554 11208,2557 11222,2557 11232,2557 11246,2555 11262,2553 Z M 11353,1989 L 11353,1883 11446,1883 11446,1989 11353,1989 Z M 11353,2636 L 11353,2090 11446,2090 11446,2636 11353,2636 Z M 11552,2363 C 11552,2262 11580,2187 11636,2139 11683,2098 11740,2078 11807,2078 11882,2078 11943,2103 11991,2152 12038,2201 12062,2269 12062,2355 12062,2425 12051,2481 12030,2521 12009,2561 11979,2592 11939,2615 11899,2637 11855,2648 11807,2648 11731,2648 11669,2624 11622,2575 11575,2526 11552,2455 11552,2363 Z M 11647,2363 C 11647,2433 11662,2485 11692,2520 11723,2555 11761,2572 11807,2572 11853,2572 11891,2554 11921,2520 11952,2485 11967,2431 11967,2360 11967,2292 11952,2241 11921,2207 11891,2172 11853,2154 11807,2154 11761,2154 11723,2172 11692,2206 11662,2241 11647,2293 11647,2363 Z M 12170,2636 L 12170,2090 12253,2090 12253,2168 C 12293,2108 12351,2078 12427,2078 12460,2078 12490,2084 12517,2096 12545,2108 12565,2123 12579,2142 12593,2161 12602,2184 12608,2211 12611,2228 12613,2258 12613,2300 L 12613,2636 12520,2636 12520,2304 C 12520,2266 12517,2238 12509,2219 12502,2201 12490,2186 12471,2175 12453,2164 12432,2158 12407,2158 12368,2158 12334,2171 12305,2196 12277,2221 12263,2268 12263,2338 L 12263,2636 12170,2636 Z M 12717,2473 L 12809,2458 C 12814,2495 12828,2523 12851,2543 12875,2562 12908,2572 12950,2572 12992,2572 13023,2563 13044,2546 13064,2529 13075,2508 13075,2485 13075,2464 13066,2448 13048,2436 13035,2428 13003,2417 12953,2405 12886,2387 12839,2373 12812,2360 12786,2348 12766,2330 12753,2308 12740,2286 12733,2262 12733,2235 12733,2211 12738,2188 12749,2168 12760,2147 12776,2130 12795,2116 12809,2105 12829,2096 12854,2089 12878,2082 12905,2078 12933,2078 12976,2078 13014,2084 13046,2097 13078,2109 13102,2126 13117,2147 13133,2168 13143,2196 13149,2231 L 13059,2243 C 13055,2215 13043,2193 13023,2178 13003,2162 12976,2154 12940,2154 12898,2154 12867,2161 12849,2175 12831,2189 12822,2206 12822,2224 12822,2236 12826,2247 12833,2257 12841,2267 12853,2275 12869,2281 12878,2285 12905,2293 12950,2305 13015,2322 13061,2337 13087,2348 13113,2359 13133,2375 13148,2396 13162,2418 13170,2444 13170,2475 13170,2506 13161,2535 13143,2562 13125,2590 13099,2611 13065,2626 13031,2641 12993,2648 12950,2648 12879,2648 12825,2633 12788,2604 12751,2574 12728,2531 12717,2473 Z"/>
      </g>
     </g>
    </g>
   </g>
  </g>
 </g>
</svg>