<?xml version="1.0" standalone="yes"?>

<svg version="1.1" viewBox="0.0 0.0 960.0 720.0" fill="none" stroke="none" stroke-linecap="square" stroke-miterlimit="10" xmlns="http://www.w3.org/2000/svg" xmlns:xlink="http://www.w3.org/1999/xlink"><clipPath id="p.0"><path d="m0 0l960.0 0l0 720.0l-960.0 0l0 -720.0z" clip-rule="nonzero"></path></clipPath><g clip-path="url(#p.0)"><path fill="#000000" fill-opacity="0.0" d="m0 0l960.0 0l0 720.0l-960.0 0z" fill-rule="evenodd"></path><path fill="#cfe2f3" d="m89.67454 548.5307l0 0c0 -13.472595 10.921654 -24.394226 24.394188 -24.394226l781.9833 0c6.4697266 0 12.6744995 2.5701294 17.249329 7.1448975c4.574768 4.574829 7.1448364 10.779541 7.1448364 17.249329l0 97.57379c0 13.472534 -10.921631 24.394165 -24.394165 24.394165l-781.9833 0c-13.472534 0 -24.394188 -10.921631 -24.394188 -24.394165z" fill-rule="evenodd"></path><path stroke="#000000" stroke-width="1.0" stroke-linejoin="round" stroke-linecap="butt" d="m89.67454 548.5307l0 0c0 -13.472595 10.921654 -24.394226 24.394188 -24.394226l781.9833 0c6.4697266 0 12.6744995 2.5701294 17.249329 7.1448975c4.574768 4.574829 7.1448364 10.779541 7.1448364 17.249329l0 97.57379c0 13.472534 -10.921631 24.394165 -24.394165 24.394165l-781.9833 0c-13.472534 0 -24.394188 -10.921631 -24.394188 -24.394165z" fill-rule="evenodd"></path><path fill="#000000" d="m341.1815 614.3976l-13.3125 -34.359375l4.921875 0l8.921875 24.953125q1.078125 3.0 1.8125 5.625q0.796875 -2.8125 1.84375 -5.625l9.28125 -24.953125l4.640625 0l-13.453125 34.359375l-4.65625 0zm21.671875 -29.515625l0 -4.84375l4.21875 0l0 4.84375l-4.21875 0zm0 29.515625l0 -24.890625l4.21875 0l0 24.890625l-4.21875 0zm10.6015625 0l0 -24.890625l3.796875 0l0 3.765625q1.453125 -2.640625 2.671875 -3.484375q1.234375 -0.84375 2.71875 -0.84375q2.125 0 4.328125 1.359375l-1.453125 3.90625q-1.546875 -0.90625 -3.09375 -0.90625q-1.375 0 -2.484375 0.828125q-1.09375 0.828125 -1.5625 2.3125q-0.703125 2.25 -0.703125 4.921875l0 13.03125l-4.21875 0zm25.234375 -3.78125l0.609375 3.734375q-1.78125 0.375 -3.1875 0.375q-2.296875 0 -3.5625 -0.71875q-1.265625 -0.734375 -1.78125 -1.921875q-0.515625 -1.1875 -0.515625 -4.984375l0 -14.3125l-3.09375 0l0 -3.28125l3.09375 0l0 -6.171875l4.203125 -2.53125l0 8.703125l4.234375 0l0 3.28125l-4.234375 0l0 14.546875q0 1.8125 0.21875 2.328125q0.21875 0.515625 0.71875 0.828125q0.515625 0.296875 1.453125 0.296875q0.703125 0 1.84375 -0.171875zm20.445312 3.78125l0 -3.65625q-2.90625 4.21875 -7.90625 4.21875q-2.203125 0 -4.109375 -0.84375q-1.90625 -0.84375 -2.84375 -2.125q-0.921875 -1.28125 -1.296875 -3.125q-0.25 -1.25 -0.25 -3.9375l0 -15.421875l4.21875 0l0 13.796875q0 3.3125 0.25 4.453125q0.40625 1.671875 1.6875 2.625q1.296875 0.9375 3.1875 0.9375q1.90625 0 3.5625 -0.96875q1.671875 -0.96875 2.359375 -2.640625q0.6875 -1.6875 0.6875 -4.875l0 -13.328125l4.21875 0l0 24.890625l-3.765625 0zm26.617188 -3.078125q-2.34375 2.0 -4.515625 2.828125q-2.15625 0.8125 -4.640625 0.8125q-4.109375 0 -6.3125 -2.0q-2.203125 -2.015625 -2.203125 -5.125q0 -1.828125 0.828125 -3.34375q0.84375 -1.515625 2.1875 -2.421875q1.34375 -0.921875 3.03125 -1.390625q1.25 -0.328125 3.75 -0.625q5.109375 -0.609375 7.53125 -1.453125q0.015625 -0.875 0.015625 -1.109375q0 -2.578125 -1.1875 -3.625q-1.625 -1.4375 -4.8125 -1.4375q-2.96875 0 -4.390625 1.046875q-1.421875 1.046875 -2.09375 3.6875l-4.125 -0.5625q0.5625 -2.640625 1.84375 -4.265625q1.296875 -1.640625 3.734375 -2.515625q2.4375 -0.875 5.640625 -0.875q3.1875 0 5.171875 0.75q2.0 0.75 2.9375 1.890625q0.9375 1.125 1.3125 2.859375q0.21875 1.078125 0.21875 3.890625l0 5.625q0 5.890625 0.265625 7.453125q0.265625 1.546875 1.0625 2.984375l-4.40625 0q-0.65625 -1.3125 -0.84375 -3.078125zm-0.34375 -9.421875q-2.296875 0.9375 -6.890625 1.59375q-2.609375 0.375 -3.6875 0.84375q-1.078125 0.46875 -1.671875 1.375q-0.578125 0.90625 -0.578125 2.0q0 1.6875 1.28125 2.8125q1.28125 1.125 3.734375 1.125q2.4375 0 4.328125 -1.0625q1.90625 -1.0625 2.796875 -2.921875q0.6875 -1.421875 0.6875 -4.21875l0 -1.546875zm10.7109375 12.5l0 -34.359375l4.21875 0l0 34.359375l-4.21875 0zm24.484375 0l0 -34.359375l6.84375 0l8.140625 24.328125q1.125 3.390625 1.640625 5.078125q0.578125 -1.875 1.828125 -5.5l8.21875 -23.90625l6.1249695 0l0 34.359375l-4.3905945 0l0 -28.765625l-9.984375 28.765625l-4.09375 0l-9.9375 -29.25l0 29.25l-4.390625 0zm55.828094 -3.078125q-2.34375 2.0 -4.515625 2.828125q-2.15625 0.8125 -4.640625 0.8125q-4.109375 0 -6.3125 -2.0q-2.203125 -2.015625 -2.203125 -5.125q0 -1.828125 0.828125 -3.34375q0.84375 -1.515625 2.1875 -2.421875q1.34375 -0.921875 3.03125 -1.390625q1.25 -0.328125 3.75 -0.625q5.109375 -0.609375 7.53125 -1.453125q0.015625 -0.875 0.015625 -1.109375q0 -2.578125 -1.1875 -3.625q-1.625 -1.4375 -4.8125 -1.4375q-2.96875 0 -4.390625 1.046875q-1.421875 1.046875 -2.09375 3.6875l-4.125 -0.5625q0.5625 -2.640625 1.84375 -4.265625q1.296875 -1.640625 3.734375 -2.515625q2.4375 -0.875 5.640625 -0.875q3.1875 0 5.171875 0.75q2.0 0.75 2.9375 1.890625q0.9375 1.125 1.3125 2.859375q0.21875 1.078125 0.21875 3.890625l0 5.625q0 5.890625 0.265625 7.453125q0.265625 1.546875 1.0625 2.984375l-4.40625 0q-0.65625 -1.3125 -0.84375 -3.078125zm-0.34375 -9.421875q-2.296875 0.9375 -6.890625 1.59375q-2.609375 0.375 -3.6875 0.84375q-1.078125 0.46875 -1.671875 1.375q-0.578125 0.90625 -0.578125 2.0q0 1.6875 1.28125 2.8125q1.28125 1.125 3.734375 1.125q2.4375 0 4.328125 -1.0625q1.90625 -1.0625 2.796875 -2.921875q0.6875 -1.421875 0.6875 -4.21875l0 -1.546875zm27.039062 3.375l4.15625 0.546875q-0.6875 4.28125 -3.484375 6.71875q-2.796875 2.421875 -6.875 2.421875q-5.109375 0 -8.21875 -3.34375q-3.109375 -3.34375 -3.109375 -9.578125q0 -4.03125 1.328125 -7.046875q1.34375 -3.03125 4.078125 -4.53125q2.734375 -1.515625 5.9375 -1.515625q4.0625 0 6.640625 2.046875q2.578125 2.046875 3.296875 5.828125l-4.09375 0.625q-0.59375 -2.5 -2.078125 -3.765625q-1.484375 -1.265625 -3.59375 -1.265625q-3.1875 0 -5.1875 2.28125q-1.984375 2.28125 -1.984375 7.234375q0 5.015625 1.921875 7.296875q1.921875 2.265625 5.015625 2.265625q2.484375 0 4.140625 -1.515625q1.671875 -1.53125 2.109375 -4.703125zm7.765625 9.125l0 -34.359375l4.21875 0l0 12.328125q2.953125 -3.421875 7.453125 -3.421875q2.765625 0 4.796875 1.09375q2.046875 1.078125 2.921875 3.0q0.875 1.921875 0.875 5.578125l0 15.78125l-4.21875 0l0 -15.78125q0 -3.15625 -1.375 -4.59375q-1.359375 -1.453125 -3.875 -1.453125q-1.875 0 -3.53125 0.984375q-1.640625 0.96875 -2.34375 2.640625q-0.703125 1.65625 -0.703125 4.578125l0 13.625l-4.21875 0zm26.710938 -29.515625l0 -4.84375l4.21875 0l0 4.84375l-4.21875 0zm0 29.515625l0 -24.890625l4.21875 0l0 24.890625l-4.21875 0zm10.6484375 0l0 -24.890625l3.796875 0l0 3.53125q2.734375 -4.09375 7.921875 -4.09375q2.25 0 4.125 0.8125q1.890625 0.796875 2.828125 2.109375q0.9375 1.3125 1.3125 3.125q0.234375 1.171875 0.234375 4.09375l0 15.3125l-4.21875 0l0 -15.140625q0 -2.578125 -0.5 -3.859375q-0.484375 -1.28125 -1.734375 -2.03125q-1.25 -0.765625 -2.9375 -0.765625q-2.703125 0 -4.65625 1.71875q-1.953125 1.703125 -1.953125 6.484375l0 13.59375l-4.21875 0zm43.726562 -8.015625l4.359375 0.53125q-1.03125 3.828125 -3.828125 5.9375q-2.78125 2.109375 -7.109375 2.109375q-5.46875 0 -8.671875 -3.359375q-3.1875 -3.375 -3.1875 -9.4375q0 -6.28125 3.234375 -9.75q3.234375 -3.46875 8.390625 -3.46875q4.984375 0 8.140625 3.40625q3.171875 3.390625 3.171875 9.546875q0 0.375 -0.015625 1.125l-18.5625 0q0.234375 4.109375 2.3125 6.296875q2.09375 2.171875 5.203125 2.171875q2.328125 0 3.96875 -1.21875q1.640625 -1.21875 2.59375 -3.890625zm-13.84375 -6.828125l13.890625 0q-0.28125 -3.140625 -1.59375 -4.703125q-2.015625 -2.4375 -5.21875 -2.4375q-2.90625 0 -4.890625 1.953125q-1.984375 1.9375 -2.1875 5.1875zm21.820312 7.40625l4.171875 -0.65625q0.34375 2.515625 1.953125 3.859375q1.609375 1.328125 4.484375 1.328125q2.90625 0 4.3125 -1.1875q1.40625 -1.1875 1.40625 -2.78125q0 -1.421875 -1.234375 -2.25q-0.875 -0.5625 -4.3125 -1.421875q-4.640625 -1.171875 -6.4375 -2.03125q-1.796875 -0.859375 -2.71875 -2.359375q-0.921875 -1.515625 -0.921875 -3.34375q0 -1.671875 0.75 -3.078125q0.765625 -1.421875 2.078125 -2.359375q0.984375 -0.734375 2.6875 -1.234375q1.703125 -0.5 3.640625 -0.5q2.9375 0 5.140625 0.84375q2.21875 0.84375 3.265625 2.28125q1.0625 1.4375 1.46875 3.859375l-4.125 0.5625q-0.28125 -1.921875 -1.640625 -3.0q-1.34375 -1.078125 -3.796875 -1.078125q-2.90625 0 -4.15625 0.96875q-1.234375 0.953125 -1.234375 2.234375q0 0.828125 0.515625 1.484375q0.515625 0.671875 1.609375 1.125q0.640625 0.234375 3.734375 1.078125q4.46875 1.1875 6.234375 1.953125q1.78125 0.765625 2.78125 2.21875q1.015625 1.453125 1.015625 3.609375q0 2.109375 -1.234375 3.96875q-1.234375 1.859375 -3.5625 2.890625q-2.3125 1.015625 -5.234375 1.015625q-4.859375 0 -7.40625 -2.015625q-2.53125 -2.015625 -3.234375 -5.984375z" fill-rule="nonzero"></path><path fill="#cfe2f3" d="m170.11548 383.8719l0 0c0 -13.472534 10.921661 -24.394196 24.394196 -24.394196l619.77856 0c6.4697876 0 12.6744995 2.5700989 17.249329 7.1448975c4.574768 4.5747986 7.1448975 10.779541 7.1448975 17.249298l0 97.57382c0 13.472534 -10.921692 24.394196 -24.394226 24.394196l-619.77856 0c-13.472534 0 -24.394196 -10.921661 -24.394196 -24.394196z" fill-rule="evenodd"></path><path stroke="#000000" stroke-width="1.0" stroke-linejoin="round" stroke-linecap="butt" d="m170.11548 383.8719l0 0c0 -13.472534 10.921661 -24.394196 24.394196 -24.394196l619.77856 0c6.4697876 0 12.6744995 2.5700989 17.249329 7.1448975c4.574768 4.5747986 7.1448975 10.779541 7.1448975 17.249298l0 97.57382c0 13.472534 -10.921692 24.394196 -24.394226 24.394196l-619.77856 0c-13.472534 0 -24.394196 -10.921661 -24.394196 -24.394196z" fill-rule="evenodd"></path><path fill="#000000" d="m416.55518 437.69193l4.546875 1.140625q-1.421875 5.609375 -5.140625 8.5625q-3.71875 2.9375 -9.078125 2.9375q-5.5625 0 -9.046875 -2.265625q-3.46875 -2.265625 -5.296875 -6.546875q-1.8125 -4.296875 -1.8125 -9.21875q0 -5.375 2.046875 -9.359375q2.0625 -4.0 5.84375 -6.078125q3.78125 -2.078125 8.328125 -2.078125q5.15625 0 8.671875 2.625q3.515625 2.625 4.90625 7.390625l-4.484375 1.046875q-1.1875 -3.75 -3.46875 -5.453125q-2.265625 -1.71875 -5.71875 -1.71875q-3.953125 0 -6.625 1.90625q-2.65625 1.890625 -3.734375 5.09375q-1.078125 3.203125 -1.078125 6.59375q0 4.390625 1.28125 7.65625q1.28125 3.265625 3.96875 4.890625q2.703125 1.609375 5.84375 1.609375q3.8125 0 6.453125 -2.203125q2.65625 -2.203125 3.59375 -6.53125zm8.0390625 -0.40625q0 -6.90625 3.84375 -10.234375q3.21875 -2.765625 7.828125 -2.765625q5.140625 0 8.390625 3.359375q3.265625 3.359375 3.265625 9.296875q0 4.796875 -1.453125 7.5625q-1.4375 2.75 -4.1875 4.28125q-2.75 1.515625 -6.015625 1.515625q-5.21875 0 -8.453125 -3.34375q-3.21875 -3.359375 -3.21875 -9.671875zm4.34375 0q0 4.78125 2.078125 7.171875q2.09375 2.375 5.25 2.375q3.140625 0 5.21875 -2.390625q2.09375 -2.390625 2.09375 -7.296875q0 -4.609375 -2.09375 -6.984375q-2.09375 -2.390625 -5.21875 -2.390625q-3.15625 0 -5.25 2.375q-2.078125 2.359375 -2.078125 7.140625zm23.929688 12.453125l0 -24.890625l3.796875 0l0 3.53125q2.734375 -4.09375 7.921875 -4.09375q2.25 0 4.125 0.8125q1.890625 0.796875 2.828125 2.109375q0.9375 1.3125 1.3125 3.125q0.234375 1.171875 0.234375 4.09375l0 15.3125l-4.21875 0l0 -15.140625q0 -2.578125 -0.5 -3.859375q-0.484375 -1.28125 -1.734375 -2.03125q-1.25 -0.765625 -2.9375 -0.765625q-2.703125 0 -4.65625 1.71875q-1.953125 1.703125 -1.953125 6.484375l0 13.59375l-4.21875 0zm35.898438 -3.78125l0.609375 3.734375q-1.78125 0.375 -3.1875 0.375q-2.296875 0 -3.5625 -0.71875q-1.265625 -0.734375 -1.78125 -1.921875q-0.515625 -1.1875 -0.515625 -4.984375l0 -14.3125l-3.09375 0l0 -3.28125l3.09375 0l0 -6.171875l4.203125 -2.53125l0 8.703125l4.234375 0l0 3.28125l-4.234375 0l0 14.546875q0 1.8125 0.21875 2.328125q0.21875 0.515625 0.71875 0.828125q0.515625 0.296875 1.453125 0.296875q0.703125 0 1.84375 -0.171875zm20.367188 0.703125q-2.34375 2.0 -4.515625 2.828125q-2.15625 0.8125 -4.640625 0.8125q-4.109375 0 -6.3125 -2.0q-2.203125 -2.015625 -2.203125 -5.125q0 -1.828125 0.828125 -3.34375q0.84375 -1.515625 2.1875 -2.421875q1.34375 -0.921875 3.03125 -1.390625q1.25 -0.328125 3.75 -0.625q5.109375 -0.609375 7.53125 -1.453125q0.015625 -0.875 0.015625 -1.109375q0 -2.578125 -1.1875 -3.625q-1.625 -1.4375 -4.8125 -1.4375q-2.96875 0 -4.390625 1.046875q-1.421875 1.046875 -2.09375 3.6875l-4.125 -0.5625q0.5625 -2.640625 1.84375 -4.265625q1.296875 -1.640625 3.734375 -2.515625q2.4375 -0.875 5.640625 -0.875q3.1875 0 5.171875 0.75q2.0 0.75 2.9375 1.890625q0.9375 1.125 1.3125 2.859375q0.21875 1.078125 0.21875 3.890625l0 5.625q0 5.890625 0.265625 7.453125q0.265625 1.546875 1.0625 2.984375l-4.40625 0q-0.65625 -1.3125 -0.84375 -3.078125zm-0.34375 -9.421875q-2.296875 0.9375 -6.890625 1.59375q-2.609375 0.375 -3.6875 0.84375q-1.078125 0.46875 -1.671875 1.375q-0.578125 0.90625 -0.578125 2.0q0 1.6875 1.28125 2.8125q1.28125 1.125 3.734375 1.125q2.4375 0 4.328125 -1.0625q1.90625 -1.0625 2.796875 -2.921875q0.6875 -1.421875 0.6875 -4.21875l0 -1.546875zm10.8203125 -17.015625l0 -4.84375l4.21875 0l0 4.84375l-4.21875 0zm0 29.515625l0 -24.890625l4.21875 0l0 24.890625l-4.21875 0zm10.6484375 0l0 -24.890625l3.796875 0l0 3.53125q2.734375 -4.09375 7.921875 -4.09375q2.25 0 4.125 0.8125q1.890625 0.796875 2.828125 2.109375q0.9375 1.3125 1.3125 3.125q0.234375 1.171875 0.234375 4.09375l0 15.3125l-4.21875 0l0 -15.140625q0 -2.578125 -0.5 -3.859375q-0.484375 -1.28125 -1.734375 -2.03125q-1.25 -0.765625 -2.9375 -0.765625q-2.703125 0 -4.65625 1.71875q-1.953125 1.703125 -1.953125 6.484375l0 13.59375l-4.21875 0zm43.726562 -8.015625l4.359375 0.53125q-1.03125 3.828125 -3.828125 5.9375q-2.78125 2.109375 -7.109375 2.109375q-5.46875 0 -8.671875 -3.359375q-3.1875 -3.375 -3.1875 -9.4375q0 -6.28125 3.234375 -9.75q3.234375 -3.46875 8.390625 -3.46875q4.984375 0 8.140625 3.40625q3.171875 3.390625 3.171875 9.546875q0 0.375 -0.015625 1.125l-18.5625 0q0.234375 4.109375 2.3125 6.296875q2.09375 2.171875 5.203125 2.171875q2.328125 0 3.96875 -1.21875q1.640625 -1.21875 2.59375 -3.890625zm-13.84375 -6.828125l13.890625 0q-0.28125 -3.140625 -1.59375 -4.703125q-2.015625 -2.4375 -5.21875 -2.4375q-2.90625 0 -4.890625 1.953125q-1.984375 1.9375 -2.1875 5.1875zm23.460938 14.84375l0 -24.890625l3.796875 0l0 3.765625q1.453125 -2.640625 2.671875 -3.484375q1.234375 -0.84375 2.71875 -0.84375q2.125 0 4.328125 1.359375l-1.453125 3.90625q-1.546875 -0.90625 -3.09375 -0.90625q-1.375 0 -2.484375 0.828125q-1.09375 0.828125 -1.5625 2.3125q-0.703125 2.25 -0.703125 4.921875l0 13.03125l-4.21875 0zm14.34375 -7.4375l4.171875 -0.65625q0.34375 2.515625 1.953125 3.859375q1.609375 1.328125 4.484375 1.328125q2.90625 0 4.3125 -1.1875q1.40625 -1.1875 1.40625 -2.78125q0 -1.421875 -1.234375 -2.25q-0.875 -0.5625 -4.3125 -1.421875q-4.640625 -1.171875 -6.4375 -2.03125q-1.796875 -0.859375 -2.71875 -2.359375q-0.921875 -1.515625 -0.921875 -3.34375q0 -1.671875 0.75 -3.078125q0.765625 -1.421875 2.078125 -2.359375q0.984375 -0.734375 2.6875 -1.234375q1.703125 -0.5 3.640625 -0.5q2.9375 0 5.140625 0.84375q2.21875 0.84375 3.265625 2.28125q1.0625 1.4375 1.46875 3.859375l-4.125 0.5625q-0.28125 -1.921875 -1.640625 -3.0q-1.34375 -1.078125 -3.796875 -1.078125q-2.90625 0 -4.15625 0.96875q-1.234375 0.953125 -1.234375 2.234375q0 0.828125 0.515625 1.484375q0.515625 0.671875 1.609375 1.125q0.640625 0.234375 3.734375 1.078125q4.46875 1.1875 6.234375 1.953125q1.78125 0.765625 2.78125 2.21875q1.015625 1.453125 1.015625 3.609375q0 2.109375 -1.234375 3.96875q-1.234375 1.859375 -3.5625 2.890625q-2.3125 1.015625 -5.234375 1.015625q-4.859375 0 -7.40625 -2.015625q-2.53125 -2.015625 -3.234375 -5.984375z" fill-rule="nonzero"></path><path fill="#cfe2f3" d="m230.77428 219.21309l0 0c0 -13.472534 10.921646 -24.394196 24.394196 -24.394196l497.13287 0c6.4697876 0 12.6744995 2.5700989 17.249329 7.1448975c4.574768 4.5747986 7.1448975 10.779556 7.1448975 17.249298l0 97.57384c0 13.472534 -10.921692 24.394165 -24.394226 24.394165l-497.13287 0c-13.472549 0 -24.394196 -10.921631 -24.394196 -24.394165z" fill-rule="evenodd"></path><path stroke="#000000" stroke-width="1.0" stroke-linejoin="round" stroke-linecap="butt" d="m230.77428 219.21309l0 0c0 -13.472534 10.921646 -24.394196 24.394196 -24.394196l497.13287 0c6.4697876 0 12.6744995 2.5700989 17.249329 7.1448975c4.574768 4.5747986 7.1448975 10.779556 7.1448975 17.249298l0 97.57384c0 13.472534 -10.921692 24.394165 -24.394226 24.394165l-497.13287 0c-13.472549 0 -24.394196 -10.921631 -24.394196 -24.394165z" fill-rule="evenodd"></path><path fill="#000000" d="m448.95367 285.08l13.203125 -34.35936l4.90625 0l14.0625 34.35936l-5.1875 0l-4.0 -10.40625l-14.375 0l-3.765625 10.40625l-4.84375 0zm9.921875 -14.109375l11.65625 0l-3.59375 -9.515625q-1.640625 -4.34375 -2.4375 -7.1249847q-0.65625 3.2968597 -1.84375 6.5624847l-3.78125 10.078125zm25.34375 23.65625l0 -34.4375l3.84375 0l0 3.234375q1.359375 -1.90625 3.0625 -2.84375q1.71875 -0.953125 4.15625 -0.953125q3.1875 0 5.625 1.640625q2.4375 1.640625 3.671875 4.625q1.25 2.984375 1.25 6.546875q0 3.828125 -1.375 6.890625q-1.375 3.046875 -3.984375 4.6875q-2.609375 1.625 -5.5 1.625q-2.109375 0 -3.78125 -0.890625q-1.671875 -0.890625 -2.75 -2.25l0 12.125l-4.21875 0zm3.8125 -21.859375q0 4.8125 1.9375 7.109375q1.953125 2.296875 4.71875 2.296875q2.8125 0 4.8125 -2.375q2.015625 -2.390625 2.015625 -7.375q0 -4.765625 -1.96875 -7.125q-1.953125 -2.375 -4.671875 -2.375q-2.6875 0 -4.765625 2.53125q-2.078125 2.515625 -2.078125 7.3125zm22.882812 21.859375l0 -34.4375l3.84375 0l0 3.234375q1.359375 -1.90625 3.0625 -2.84375q1.71875 -0.953125 4.15625 -0.953125q3.1875 0 5.625 1.640625q2.4375 1.640625 3.671875 4.625q1.25 2.984375 1.25 6.546875q0 3.828125 -1.375 6.890625q-1.375 3.046875 -3.984375 4.6875q-2.609375 1.625 -5.5 1.625q-2.109375 0 -3.78125 -0.890625q-1.671875 -0.890625 -2.75 -2.25l0 12.125l-4.21875 0zm3.8125 -21.859375q0 4.8125 1.9375 7.109375q1.953125 2.296875 4.71875 2.296875q2.8125 0 4.8125 -2.375q2.015625 -2.390625 2.015625 -7.375q0 -4.765625 -1.96875 -7.125q-1.953125 -2.375 -4.671875 -2.375q-2.6875 0 -4.765625 2.53125q-2.078125 2.515625 -2.078125 7.3125zm21.195312 4.875l4.171875 -0.65625q0.34375 2.515625 1.953125 3.859375q1.609375 1.328125 4.484375 1.328125q2.90625 0 4.3125 -1.1875q1.40625 -1.1875 1.40625 -2.78125q0 -1.421875 -1.234375 -2.25q-0.875 -0.5625 -4.3125 -1.421875q-4.640625 -1.171875 -6.4375 -2.03125q-1.796875 -0.859375 -2.71875 -2.359375q-0.921875 -1.515625 -0.921875 -3.34375q0 -1.671875 0.75 -3.078125q0.765625 -1.421875 2.078125 -2.359375q0.984375 -0.734375 2.6875 -1.234375q1.703125 -0.5 3.640625 -0.5q2.9375 0 5.140625 0.84375q2.21875 0.84375 3.265625 2.28125q1.0625 1.4375 1.46875 3.859375l-4.125 0.5625q-0.28125 -1.921875 -1.640625 -3.0q-1.34375 -1.078125 -3.796875 -1.078125q-2.90625 0 -4.15625 0.96875q-1.234375 0.953125 -1.234375 2.234375q0 0.828125 0.515625 1.484375q0.515625 0.671875 1.609375 1.125q0.640625 0.234375 3.734375 1.078125q4.46875 1.1875 6.234375 1.953125q1.78125 0.765625 2.78125 2.21875q1.015625 1.453125 1.015625 3.609375q0 2.109375 -1.234375 3.96875q-1.234375 1.859375 -3.5625 2.890625q-2.3125 1.015625 -5.234375 1.015625q-4.859375 0 -7.40625 -2.015625q-2.53125 -2.015625 -3.234375 -5.984375z" fill-rule="nonzero"></path><path fill="#cfe2f3" d="m308.5748 54.554295l0 0c0 -13.472538 10.921661 -24.39419 24.394196 -24.39419l333.63684 0c6.4697266 0 12.6744995 2.5700932 17.249268 7.1448917c4.574829 4.5747986 7.1448975 10.779556 7.1448975 17.249298l0 97.57384c0 13.472534 -10.921631 24.39418 -24.394165 24.39418l-333.63684 0l0 0c-13.472534 0 -24.394196 -10.921646 -24.394196 -24.39418z" fill-rule="evenodd"></path><path stroke="#000000" stroke-width="1.0" stroke-linejoin="round" stroke-linecap="butt" d="m308.5748 54.554295l0 0c0 -13.472538 10.921661 -24.39419 24.394196 -24.39419l333.63684 0c6.4697266 0 12.6744995 2.5700932 17.249268 7.1448917c4.574829 4.5747986 7.1448975 10.779556 7.1448975 17.249298l0 97.57384c0 13.472534 -10.921631 24.39418 -24.394165 24.39418l-333.63684 0l0 0c-13.472534 0 -24.394196 -10.921646 -24.394196 -24.39418z" fill-rule="evenodd"></path><path fill="#000000" d="m399.6741 120.4212l0 -34.359375l23.1875 0l0 4.046875l-18.640625 0l0 10.640625l16.125 0l0 4.0625l-16.125 0l0 15.609375l-4.546875 0zm44.867188 0l0 -3.65625q-2.90625 4.21875 -7.90625 4.21875q-2.203125 0 -4.109375 -0.84375q-1.90625 -0.84375 -2.84375 -2.125q-0.921875 -1.28125 -1.296875 -3.125q-0.25 -1.25 -0.25 -3.9375l0 -15.421875l4.21875 0l0 13.796875q0 3.3125 0.25 4.453125q0.40625 1.671875 1.6875 2.625q1.296875 0.9375 3.1875 0.9375q1.90625 0 3.5625 -0.96875q1.671875 -0.96875 2.359375 -2.640625q0.6875 -1.6875 0.6875 -4.875l0 -13.328125l4.21875 0l0 24.890625l-3.765625 0zm10.3828125 0l0 -24.890625l3.796875 0l0 3.53125q2.734375 -4.09375 7.921875 -4.09375q2.25 0 4.125 0.8125q1.890625 0.796875 2.828125 2.109375q0.9375 1.3125 1.3125 3.125q0.234375 1.171875 0.234375 4.09375l0 15.3125l-4.21875 0l0 -15.140625q0 -2.578125 -0.5 -3.859375q-0.484375 -1.28125 -1.734375 -2.03125q-1.25 -0.765625 -2.9375 -0.765625q-2.703125 0 -4.65625 1.71875q-1.953125 1.703125 -1.953125 6.484375l0 13.59375l-4.21875 0zm42.929688 -9.125l4.15625 0.546875q-0.6875 4.28125 -3.484375 6.71875q-2.796875 2.421875 -6.875 2.421875q-5.109375 0 -8.21875 -3.34375q-3.109375 -3.34375 -3.109375 -9.578125q0 -4.03125 1.328125 -7.046875q1.34375 -3.03125 4.078125 -4.53125q2.734375 -1.515625 5.9375 -1.515625q4.0625 0 6.640625 2.046875q2.578125 2.046875 3.296875 5.828125l-4.09375 0.625q-0.59375 -2.5 -2.078125 -3.765625q-1.484375 -1.265625 -3.59375 -1.265625q-3.1875 0 -5.1875 2.28125q-1.984375 2.28125 -1.984375 7.234375q0 5.015625 1.921875 7.296875q1.921875 2.265625 5.015625 2.265625q2.484375 0 4.140625 -1.515625q1.671875 -1.53125 2.109375 -4.703125zm16.96878 5.34375l0.609375 3.734375q-1.78125 0.375 -3.1875 0.375q-2.2969055 0 -3.5625305 -0.71875q-1.265625 -0.734375 -1.78125 -1.921875q-0.515625 -1.1875 -0.515625 -4.984375l0 -14.3125l-3.09375 0l0 -3.28125l3.09375 0l0 -6.171875l4.203125 -2.53125l0 8.703125l4.2344055 0l0 3.28125l-4.2344055 0l0 14.546875q0 1.8125 0.21875 2.328125q0.21875 0.515625 0.71875 0.828125q0.5156555 0.296875 1.4531555 0.296875q0.703125 0 1.84375 -0.171875zm4.1484375 -25.734375l0 -4.84375l4.21875 0l0 4.84375l-4.21875 0zm0 29.515625l0 -24.890625l4.21875 0l0 24.890625l-4.21875 0zm9.0703125 -12.453125q0 -6.90625 3.84375 -10.234375q3.21875 -2.765625 7.828125 -2.765625q5.140625 0 8.390625 3.359375q3.265625 3.359375 3.265625 9.296875q0 4.796875 -1.453125 7.5625q-1.4375 2.75 -4.1875 4.28125q-2.75 1.515625 -6.015625 1.515625q-5.21875 0 -8.453125 -3.34375q-3.21875 -3.359375 -3.21875 -9.671875zm4.34375 0q0 4.78125 2.078125 7.171875q2.09375 2.375 5.25 2.375q3.140625 0 5.21875 -2.390625q2.09375 -2.390625 2.09375 -7.296875q0 -4.609375 -2.09375 -6.984375q-2.09375 -2.390625 -5.21875 -2.390625q-3.15625 0 -5.25 2.375q-2.078125 2.359375 -2.078125 7.140625zm23.929688 12.453125l0 -24.890625l3.796875 0l0 3.53125q2.734375 -4.09375 7.921875 -4.09375q2.25 0 4.125 0.8125q1.890625 0.796875 2.828125 2.109375q0.9375 1.3125 1.3125 3.125q0.234375 1.171875 0.234375 4.09375l0 15.3125l-4.21875 0l0 -15.140625q0 -2.578125 -0.5 -3.859375q-0.484375 -1.28125 -1.734375 -2.03125q-1.25 -0.765625 -2.9375 -0.765625q-2.703125 0 -4.65625 1.71875q-1.953125 1.703125 -1.953125 6.484375l0 13.59375l-4.21875 0zm25.007812 -7.4375l4.171875 -0.65625q0.34375 2.515625 1.953125 3.859375q1.609375 1.328125 4.484375 1.328125q2.90625 0 4.3125 -1.1875q1.40625 -1.1875 1.40625 -2.78125q0 -1.421875 -1.234375 -2.25q-0.875 -0.5625 -4.3125 -1.421875q-4.640625 -1.171875 -6.4375 -2.03125q-1.796875 -0.859375 -2.71875 -2.359375q-0.921875 -1.515625 -0.921875 -3.34375q0 -1.671875 0.75 -3.078125q0.765625 -1.421875 2.078125 -2.359375q0.984375 -0.734375 2.6875 -1.234375q1.703125 -0.5 3.640625 -0.5q2.9375 0 5.140625 0.84375q2.21875 0.84375 3.265625 2.28125q1.0625 1.4375 1.46875 3.859375l-4.125 0.5625q-0.28125 -1.921875 -1.640625 -3.0q-1.34375 -1.078125 -3.796875 -1.078125q-2.90625 0 -4.15625 0.96875q-1.234375 0.953125 -1.234375 2.234375q0 0.828125 0.515625 1.484375q0.515625 0.671875 1.609375 1.125q0.640625 0.234375 3.734375 1.078125q4.46875 1.1875 6.234375 1.953125q1.78125 0.765625 2.78125 2.21875q1.015625 1.453125 1.015625 3.609375q0 2.109375 -1.234375 3.96875q-1.234375 1.859375 -3.5625 2.890625q-2.3125 1.015625 -5.234375 1.015625q-4.859375 0 -7.40625 -2.015625q-2.53125 -2.015625 -3.234375 -5.984375z" fill-rule="nonzero"></path></g></svg>

