<?xml version="1.0" encoding="UTF-8"?>
<!DOCTYPE svg PUBLIC "-//W3C//DTD SVG 1.1//EN" "http://www.w3.org/Graphics/SVG/1.1/DTD/svg11.dtd">
<svg version="1.2" width="178.91mm" height="164.15mm" viewBox="720 1699 17891 16415" preserveAspectRatio="xMidYMid" fill-rule="evenodd" stroke-width="28.222" stroke-linejoin="round" xmlns="http://www.w3.org/2000/svg" xmlns:ooo="http://xml.openoffice.org/svg/export" xmlns:xlink="http://www.w3.org/1999/xlink" xmlns:presentation="http://sun.com/xmlns/staroffice/presentation" xmlns:smil="http://www.w3.org/2001/SMIL20/" xmlns:anim="urn:oasis:names:tc:opendocument:xmlns:animation:1.0" xml:space="preserve">
 <defs class="ClipPathGroup">
  <clipPath id="presentation_clip_path" clipPathUnits="userSpaceOnUse">
   <rect x="720" y="1699" width="17891" height="16415"/>
  </clipPath>
 </defs>
 <defs class="TextShapeIndex">
  <g ooo:slide="id1" ooo:id-list="id3 id4 id5 id6 id7 id8 id9 id10 id11 id12"/>
 </defs>
 <defs class="EmbeddedBulletChars">
  <g id="bullet-char-template(57356)" transform="scale(0.00048828125,-0.00048828125)">
   <path d="M 580,1141 L 1163,571 580,0 -4,571 580,1141 Z"/>
  </g>
  <g id="bullet-char-template(57354)" transform="scale(0.00048828125,-0.00048828125)">
   <path d="M 8,1128 L 1137,1128 1137,0 8,0 8,1128 Z"/>
  </g>
  <g id="bullet-char-template(10146)" transform="scale(0.00048828125,-0.00048828125)">
   <path d="M 174,0 L 602,739 174,1481 1456,739 174,0 Z M 1358,739 L 309,1346 659,739 1358,739 Z"/>
  </g>
  <g id="bullet-char-template(10132)" transform="scale(0.00048828125,-0.00048828125)">
   <path d="M 2015,739 L 1276,0 717,0 1260,543 174,543 174,936 1260,936 717,1481 1274,1481 2015,739 Z"/>
  </g>
  <g id="bullet-char-template(10007)" transform="scale(0.00048828125,-0.00048828125)">
   <path d="M 0,-2 C -7,14 -16,27 -25,37 L 356,567 C 262,823 215,952 215,954 215,979 228,992 255,992 264,992 276,990 289,987 310,991 331,999 354,1012 L 381,999 492,748 772,1049 836,1024 860,1049 C 881,1039 901,1025 922,1006 886,937 835,863 770,784 769,783 710,716 594,584 L 774,223 C 774,196 753,168 711,139 L 727,119 C 717,90 699,76 672,76 641,76 570,178 457,381 L 164,-76 C 142,-110 111,-127 72,-127 30,-127 9,-110 8,-76 1,-67 -2,-52 -2,-32 -2,-23 -1,-13 0,-2 Z"/>
  </g>
  <g id="bullet-char-template(10004)" transform="scale(0.00048828125,-0.00048828125)">
   <path d="M 285,-33 C 182,-33 111,30 74,156 52,228 41,333 41,471 41,549 55,616 82,672 116,743 169,778 240,778 293,778 328,747 346,684 L 369,508 C 377,444 397,411 428,410 L 1163,1116 C 1174,1127 1196,1133 1229,1133 1271,1133 1292,1118 1292,1087 L 1292,965 C 1292,929 1282,901 1262,881 L 442,47 C 390,-6 338,-33 285,-33 Z"/>
  </g>
  <g id="bullet-char-template(9679)" transform="scale(0.00048828125,-0.00048828125)">
   <path d="M 813,0 C 632,0 489,54 383,161 276,268 223,411 223,592 223,773 276,916 383,1023 489,1130 632,1184 813,1184 992,1184 1136,1130 1245,1023 1353,916 1407,772 1407,592 1407,412 1353,268 1245,161 1136,54 992,0 813,0 Z"/>
  </g>
  <g id="bullet-char-template(8226)" transform="scale(0.00048828125,-0.00048828125)">
   <path d="M 346,457 C 273,457 209,483 155,535 101,586 74,649 74,723 74,796 101,859 155,911 209,963 273,989 346,989 419,989 480,963 531,910 582,859 608,796 608,723 608,648 583,586 532,535 482,483 420,457 346,457 Z"/>
  </g>
  <g id="bullet-char-template(8211)" transform="scale(0.00048828125,-0.00048828125)">
   <path d="M -4,459 L 1135,459 1135,606 -4,606 -4,459 Z"/>
  </g>
 </defs>
 <defs class="TextEmbeddedBitmaps"/>
 <g class="SlideGroup">
  <g>
   <g id="id1" class="Slide" clip-path="url(#presentation_clip_path)">
    <g class="Page">
     <g class="com.sun.star.drawing.ClosedBezierShape">
      <g id="id3">
       <rect class="BoundingBox" stroke="none" fill="none" x="2900" y="14900" width="14627" height="3204"/>
       <path fill="rgb(207,226,243)" stroke="none" d="M 2900,15434 C 2900,15139 3139,14900 3434,14900 L 16992,14900 C 17134,14900 17270,14956 17370,15056 17470,15156 17526,15292 17526,15434 L 17526,17569 C 17526,17864 17287,18103 16992,18103 L 3434,18103 C 3139,18103 2900,17864 2900,17569 L 2900,15434 Z"/>
      </g>
     </g>
     <g class="com.sun.star.drawing.ClosedBezierShape">
      <g id="id4">
       <rect class="BoundingBox" stroke="none" fill="none" x="2889" y="14889" width="14649" height="3226"/>
       <path fill="none" stroke="rgb(0,0,0)" stroke-width="22" stroke-linejoin="round" d="M 2900,15434 C 2900,15139 3139,14900 3434,14900 L 16992,14900 C 17134,14900 17270,14956 17370,15056 17470,15156 17526,15292 17526,15434 L 17526,17569 C 17526,17864 17287,18103 16992,18103 L 3434,18103 C 3139,18103 2900,17864 2900,17569 L 2900,15434 Z"/>
      </g>
     </g>
     <g class="com.sun.star.drawing.ClosedBezierShape">
      <g id="id5">
       <rect class="BoundingBox" stroke="none" fill="none" x="7726" y="16108" width="4987" height="781"/>
       <path fill="rgb(0,0,0)" stroke="none" d="M 8291,16611 L 8391,16636 C 8370,16718 8332,16780 8278,16823 8224,16866 8158,16888 8079,16888 7998,16888 7932,16871 7882,16838 7831,16805 7792,16757 7766,16695 7739,16632 7726,16565 7726,16493 7726,16414 7741,16346 7771,16288 7801,16229 7843,16185 7899,16155 7954,16124 8015,16109 8081,16109 8156,16109 8219,16128 8271,16166 8322,16205 8358,16259 8378,16328 L 8280,16351 C 8263,16297 8237,16257 8204,16232 8171,16207 8129,16194 8079,16194 8021,16194 7973,16208 7934,16236 7895,16264 7868,16301 7852,16348 7836,16394 7829,16442 7829,16492 7829,16556 7838,16612 7857,16660 7875,16707 7904,16743 7943,16767 7983,16790 8025,16802 8071,16802 8127,16802 8174,16786 8212,16754 8251,16722 8277,16674 8291,16611 Z M 8467,16602 C 8467,16501 8495,16426 8551,16378 8598,16337 8655,16317 8722,16317 8797,16317 8859,16342 8906,16391 8954,16440 8977,16508 8977,16594 8977,16664 8967,16720 8946,16760 8925,16800 8894,16831 8854,16854 8814,16876 8770,16887 8722,16887 8646,16887 8585,16862 8537,16814 8490,16765 8467,16694 8467,16602 Z M 8562,16602 C 8562,16672 8577,16724 8608,16759 8638,16794 8676,16811 8722,16811 8768,16811 8806,16793 8837,16759 8867,16724 8882,16670 8882,16599 8882,16531 8867,16480 8837,16446 8806,16411 8768,16393 8722,16393 8676,16393 8638,16411 8608,16445 8577,16480 8562,16532 8562,16602 Z M 9086,16875 L 9086,16329 9169,16329 9169,16407 C 9209,16347 9266,16317 9342,16317 9375,16317 9405,16323 9432,16335 9460,16347 9480,16362 9494,16381 9508,16400 9517,16423 9523,16450 9526,16467 9528,16497 9528,16539 L 9528,16875 9436,16875 9436,16543 C 9436,16505 9432,16477 9425,16458 9418,16440 9405,16425 9387,16414 9369,16403 9347,16397 9323,16397 9283,16397 9249,16410 9221,16435 9192,16460 9178,16507 9178,16577 L 9178,16875 9086,16875 Z M 9871,16792 L 9884,16874 C 9858,16879 9835,16882 9815,16882 9781,16882 9755,16877 9737,16866 9718,16855 9705,16841 9698,16824 9690,16807 9686,16770 9686,16715 L 9686,16401 9619,16401 9619,16329 9686,16329 9686,16194 9778,16139 9778,16329 9871,16329 9871,16401 9778,16401 9778,16720 C 9778,16746 9780,16763 9783,16771 9786,16778 9792,16784 9799,16789 9806,16793 9817,16796 9831,16796 9841,16796 9854,16794 9871,16792 Z M 10317,16807 C 10282,16836 10250,16857 10218,16869 10186,16881 10153,16887 10116,16887 10056,16887 10010,16872 9978,16843 9946,16814 9930,16776 9930,16731 9930,16704 9936,16680 9948,16658 9960,16635 9976,16618 9996,16605 10016,16591 10038,16581 10062,16574 10081,16569 10108,16565 10144,16560 10219,16552 10274,16541 10309,16529 10309,16516 10309,16508 10309,16504 10309,16467 10301,16440 10283,16425 10260,16404 10225,16393 10178,16393 10135,16393 10103,16401 10082,16416 10061,16432 10046,16459 10036,16497 L 9946,16485 C 9954,16446 9968,16415 9986,16391 10005,16367 10033,16349 10068,16336 10104,16323 10145,16317 10192,16317 10238,16317 10276,16323 10305,16334 10334,16344 10355,16358 10369,16375 10383,16391 10392,16412 10398,16438 10401,16453 10402,16482 10402,16523 L 10402,16646 C 10402,16732 10404,16786 10408,16809 10412,16832 10420,16854 10432,16875 L 10335,16875 C 10326,16855 10319,16833 10317,16807 Z M 10309,16601 C 10276,16614 10225,16626 10158,16636 10120,16641 10093,16647 10078,16654 10062,16661 10050,16671 10041,16684 10033,16698 10028,16712 10028,16728 10028,16753 10038,16773 10056,16790 10075,16806 10102,16814 10138,16814 10174,16814 10205,16807 10233,16791 10261,16776 10281,16754 10294,16727 10304,16706 10309,16676 10309,16635 L 10309,16601 Z M 10546,16228 L 10546,16122 10638,16122 10638,16228 10546,16228 Z M 10546,16875 L 10546,16329 10638,16329 10638,16875 10546,16875 Z M 10779,16875 L 10779,16329 10862,16329 10862,16407 C 10902,16347 10960,16317 11035,16317 11068,16317 11098,16323 11126,16335 11153,16347 11174,16362 11187,16381 11201,16400 11211,16423 11216,16450 11220,16467 11221,16497 11221,16539 L 11221,16875 11129,16875 11129,16543 C 11129,16505 11125,16477 11118,16458 11111,16440 11098,16425 11080,16414 11062,16403 11040,16397 11016,16397 10976,16397 10942,16410 10914,16435 10885,16460 10871,16507 10871,16577 L 10871,16875 10779,16875 Z M 11736,16699 L 11831,16711 C 11816,16767 11788,16810 11747,16841 11707,16872 11655,16887 11592,16887 11512,16887 11449,16862 11402,16813 11355,16764 11332,16695 11332,16607 11332,16515 11356,16444 11403,16393 11450,16342 11511,16317 11587,16317 11659,16317 11719,16342 11765,16392 11811,16441 11834,16511 11834,16601 11834,16606 11834,16614 11834,16625 L 11428,16625 C 11431,16685 11448,16731 11478,16763 11509,16795 11547,16811 11592,16811 11626,16811 11655,16802 11679,16784 11703,16766 11722,16738 11736,16699 Z M 11433,16549 L 11737,16549 C 11732,16504 11721,16469 11702,16446 11672,16411 11634,16393 11588,16393 11545,16393 11509,16407 11481,16436 11452,16464 11436,16502 11433,16549 Z M 11946,16875 L 11946,16329 12029,16329 12029,16412 C 12050,16373 12070,16348 12088,16336 12106,16323 12125,16317 12147,16317 12178,16317 12210,16327 12242,16347 L 12210,16432 C 12187,16419 12165,16413 12142,16413 12122,16413 12104,16419 12088,16431 12072,16443 12061,16460 12054,16481 12043,16514 12038,16550 12038,16589 L 12038,16875 11946,16875 Z M 12260,16712 L 12351,16697 C 12356,16734 12370,16762 12394,16782 12417,16801 12450,16811 12492,16811 12534,16811 12566,16802 12586,16785 12607,16768 12617,16747 12617,16724 12617,16703 12608,16687 12590,16675 12577,16667 12546,16656 12496,16644 12428,16626 12381,16612 12355,16599 12329,16587 12309,16569 12295,16547 12282,16525 12275,16501 12275,16474 12275,16450 12281,16427 12292,16407 12303,16386 12318,16369 12337,16355 12351,16344 12371,16335 12396,16328 12421,16321 12447,16317 12476,16317 12518,16317 12556,16323 12588,16336 12620,16348 12644,16365 12659,16386 12675,16407 12686,16435 12692,16470 L 12601,16482 C 12597,16454 12585,16432 12565,16417 12546,16401 12518,16393 12482,16393 12440,16393 12410,16400 12391,16414 12373,16428 12364,16445 12364,16463 12364,16475 12368,16486 12376,16496 12383,16506 12395,16514 12411,16520 12420,16524 12448,16532 12493,16544 12558,16561 12603,16576 12629,16587 12655,16598 12675,16614 12690,16635 12705,16657 12712,16683 12712,16714 12712,16745 12703,16774 12685,16801 12667,16828 12641,16850 12607,16865 12573,16879 12535,16887 12493,16887 12422,16887 12368,16872 12331,16843 12294,16813 12270,16770 12260,16712 Z"/>
      </g>
     </g>
     <g class="com.sun.star.drawing.ClosedBezierShape">
      <g id="id6">
       <rect class="BoundingBox" stroke="none" fill="none" x="730" y="1709" width="8320" height="11572"/>
       <path fill="rgb(207,226,243)" stroke="none" d="M 1000,12150 C 744,12003 655,11677 801,11421 L 6197,1979 C 6268,1856 6384,1766 6520,1729 6657,1691 6803,1710 6926,1781 L 8780,2840 C 9036,2986 9125,3313 8978,3569 L 3582,13010 C 3436,13266 3109,13355 2853,13209 L 1000,12150 Z"/>
      </g>
     </g>
     <g class="com.sun.star.drawing.ClosedBezierShape">
      <g id="id7">
       <rect class="BoundingBox" stroke="none" fill="none" x="719" y="1698" width="8342" height="11594"/>
       <path fill="none" stroke="rgb(0,0,0)" stroke-width="22" stroke-linejoin="round" d="M 1000,12150 C 744,12003 655,11677 801,11421 L 6197,1979 C 6268,1856 6384,1766 6520,1729 6657,1691 6803,1710 6926,1781 L 8780,2840 C 9036,2986 9125,3313 8978,3569 L 3582,13010 C 3436,13266 3109,13355 2853,13209 L 1000,12150 Z"/>
      </g>
     </g>
     <g class="com.sun.star.drawing.ClosedBezierShape">
      <g id="id8">
       <rect class="BoundingBox" stroke="none" fill="none" x="4109" y="6477" width="1621" height="2245"/>
       <path fill="rgb(0,0,0)" stroke="none" d="M 4619,8721 L 4110,8097 4163,8004 4969,8109 4913,8208 4672,8171 4515,8445 4672,8629 4619,8721 Z M 4459,8379 L 4585,8158 4366,8122 C 4299,8112 4245,8101 4204,8092 4241,8123 4276,8159 4309,8198 L 4459,8379 Z M 5184,8154 L 4529,7780 4571,7707 4632,7742 C 4618,7711 4612,7682 4612,7653 4612,7625 4621,7595 4639,7564 4662,7524 4692,7494 4731,7475 4770,7456 4812,7450 4859,7456 4906,7461 4952,7477 4997,7503 5045,7530 5084,7564 5113,7603 5142,7643 5157,7686 5159,7731 5161,7776 5151,7816 5130,7853 5115,7880 5095,7900 5072,7915 5048,7929 5025,7939 4999,7943 L 5229,8074 5184,8154 Z M 4810,7845 C 4871,7880 4923,7893 4966,7884 5009,7877 5041,7855 5061,7820 5082,7785 5083,7745 5068,7703 5053,7660 5013,7621 4949,7585 4890,7551 4837,7537 4793,7545 4749,7552 4717,7573 4697,7607 4678,7641 4677,7681 4694,7726 4710,7770 4749,7810 4810,7845 Z M 5474,7647 L 4819,7273 4861,7200 4922,7235 C 4908,7204 4901,7175 4902,7146 4902,7118 4911,7087 4929,7057 4952,7016 4983,6986 5021,6968 5060,6949 5103,6942 5149,6948 5196,6954 5242,6970 5287,6996 5335,7023 5374,7057 5403,7096 5432,7136 5447,7178 5449,7223 5451,7268 5441,7309 5420,7346 5405,7373 5385,7393 5361,7408 5338,7422 5314,7432 5289,7436 L 5519,7567 5474,7647 Z M 5100,7338 C 5161,7373 5213,7385 5256,7377 5299,7370 5331,7348 5351,7313 5371,7278 5373,7238 5358,7196 5343,7153 5303,7113 5240,7077 5180,7043 5127,7030 5082,7038 5039,7045 5007,7066 4987,7100 4967,7134 4966,7174 4984,7219 5000,7262 5039,7303 5100,7338 Z M 5423,6988 L 5456,6901 C 5490,6915 5521,6917 5550,6906 5579,6895 5603,6872 5624,6836 5645,6798 5653,6767 5649,6740 5643,6714 5631,6695 5611,6683 5593,6673 5574,6673 5555,6682 5541,6689 5516,6712 5480,6749 5432,6800 5397,6833 5372,6850 5348,6866 5323,6875 5298,6875 5271,6876 5248,6870 5224,6856 5203,6844 5186,6828 5174,6809 5161,6789 5154,6768 5152,6743 5149,6726 5151,6705 5157,6679 5163,6654 5173,6629 5187,6605 5208,6567 5232,6538 5260,6516 5286,6494 5312,6481 5338,6479 5363,6476 5394,6481 5427,6493 L 5393,6577 C 5367,6567 5342,6566 5319,6576 5295,6585 5274,6605 5257,6636 5235,6674 5226,6703 5230,6726 5233,6748 5242,6764 5259,6773 5269,6779 5281,6781 5293,6780 5305,6778 5318,6773 5331,6762 5340,6755 5360,6736 5393,6702 5440,6654 5475,6621 5498,6605 5520,6588 5544,6578 5569,6577 5595,6574 5623,6580 5649,6596 5676,6611 5697,6633 5712,6662 5726,6691 5731,6724 5728,6761 5724,6798 5712,6835 5690,6873 5655,6934 5615,6974 5572,6991 5527,7009 5478,7007 5423,6988 Z"/>
      </g>
     </g>
     <g class="com.sun.star.drawing.ClosedBezierShape">
      <g id="id9">
       <rect class="BoundingBox" stroke="none" fill="none" x="12055" y="3335" width="6546" height="8466"/>
       <path fill="rgb(207,226,243)" stroke="none" d="M 14178,3406 C 14434,3259 14760,3348 14906,3604 L 18529,9941 C 18599,10063 18618,10209 18581,10345 18544,10482 18454,10599 18331,10669 L 16477,11729 C 16221,11875 15895,11787 15749,11530 L 12126,5194 C 11979,4938 12068,4612 12324,4466 L 14178,3406 Z"/>
      </g>
     </g>
     <g class="com.sun.star.drawing.ClosedBezierShape">
      <g id="id10">
       <rect class="BoundingBox" stroke="none" fill="none" x="12044" y="3324" width="6568" height="8488"/>
       <path fill="none" stroke="rgb(0,0,0)" stroke-width="22" stroke-linejoin="round" d="M 14178,3406 C 14434,3259 14760,3348 14906,3604 L 18529,9941 C 18599,10063 18618,10209 18581,10345 18544,10482 18454,10599 18331,10669 L 16477,11729 C 16221,11875 15895,11787 15749,11530 L 12126,5194 C 11979,4938 12068,4612 12324,4466 L 14178,3406 Z"/>
      </g>
     </g>
     <g class="com.sun.star.drawing.ClosedBezierShape">
      <g id="id11">
       <rect class="BoundingBox" stroke="none" fill="none" x="13915" y="5477" width="2608" height="4160"/>
       <path fill="rgb(0,0,0)" stroke="none" d="M 13915,5852 L 14569,5478 14820,5918 14743,5962 14541,5608 14338,5724 14514,6030 14436,6074 14261,5768 13964,5938 13915,5852 Z M 14402,6704 L 14472,6664 C 14398,6657 14342,6623 14306,6560 14290,6532 14281,6503 14278,6472 14274,6442 14277,6416 14287,6396 14297,6374 14312,6355 14333,6336 14347,6325 14371,6309 14405,6289 L 14698,6121 14744,6201 14481,6352 C 14439,6376 14412,6393 14399,6404 14380,6422 14370,6443 14367,6465 14365,6488 14371,6512 14385,6536 14398,6560 14417,6579 14441,6593 14466,6607 14491,6613 14518,6609 14544,6606 14577,6593 14618,6569 L 14871,6424 14917,6504 14443,6775 14402,6704 Z M 14515,6901 L 14989,6630 15030,6702 14963,6741 C 15035,6746 15089,6781 15127,6846 15143,6875 15153,6904 15156,6934 15159,6964 15157,6989 15146,7010 15137,7032 15122,7052 15101,7070 15088,7082 15063,7097 15026,7118 L 14735,7285 14689,7205 14977,7040 C 15010,7021 15032,7004 15045,6989 15058,6974 15064,6955 15065,6934 15065,6913 15060,6891 15048,6870 15028,6835 15000,6812 14964,6800 14928,6787 14880,6798 14819,6833 L 14561,6981 14515,6901 Z M 15155,7617 L 15190,7702 C 15131,7724 15076,7727 15024,7709 14974,7691 14933,7656 14903,7604 14867,7540 14858,7476 14878,7413 14898,7348 14947,7295 15026,7249 15078,7220 15126,7203 15174,7198 15223,7192 15266,7202 15305,7226 15344,7250 15375,7281 15399,7322 15428,7373 15439,7423 15432,7470 15424,7518 15400,7560 15356,7596 L 15301,7526 C 15327,7500 15344,7473 15349,7445 15355,7417 15349,7389 15335,7363 15311,7323 15278,7298 15235,7289 15192,7280 15139,7295 15076,7330 15012,7367 14973,7406 14958,7446 14943,7487 14946,7527 14969,7566 14987,7598 15012,7618 15043,7628 15074,7638 15112,7635 15155,7617 Z M 15237,7997 L 15173,8050 C 15156,8030 15142,8012 15131,7993 15115,7965 15107,7940 15107,7918 15107,7897 15113,7878 15124,7863 15135,7848 15165,7827 15213,7799 L 15486,7643 15452,7584 15514,7549 15548,7608 15665,7541 15759,7593 15594,7688 15639,7767 15577,7803 15531,7723 15254,7882 C 15232,7895 15217,7904 15212,7911 15208,7917 15205,7925 15204,7933 15205,7942 15207,7952 15214,7965 15219,7973 15228,7984 15237,7997 Z M 15772,7796 L 15864,7744 15910,7824 15818,7877 15772,7796 Z M 15211,8117 L 15685,7846 15731,7927 15257,8198 15211,8117 Z M 15546,8155 C 15634,8105 15713,8092 15782,8116 15841,8137 15887,8176 15920,8235 15958,8300 15966,8365 15947,8431 15928,8496 15881,8551 15806,8593 15746,8628 15692,8646 15646,8648 15601,8650 15559,8639 15520,8616 15481,8592 15449,8559 15425,8518 15388,8452 15378,8386 15397,8321 15416,8256 15466,8200 15546,8155 Z M 15593,8237 C 15533,8272 15495,8311 15479,8354 15464,8398 15469,8440 15491,8480 15514,8520 15549,8544 15593,8553 15639,8562 15693,8549 15755,8513 15814,8480 15851,8441 15865,8398 15880,8354 15877,8312 15854,8272 15831,8232 15797,8208 15752,8198 15707,8190 15654,8202 15593,8237 Z M 15616,8827 L 16090,8556 16131,8628 16064,8666 C 16135,8671 16190,8707 16228,8773 16244,8801 16254,8830 16257,8860 16261,8890 16257,8915 16248,8937 16238,8958 16223,8977 16202,8996 16189,9007 16164,9024 16128,9044 L 15836,9211 15790,9131 16078,8966 C 16111,8947 16134,8930 16146,8914 16158,8899 16166,8881 16166,8859 16166,8838 16161,8817 16149,8795 16129,8761 16101,8738 16065,8725 16029,8714 15982,8725 15921,8760 L 15662,8907 15616,8827 Z M 16029,9221 L 16088,9293 C 16058,9316 16041,9342 16035,9372 16030,9402 16038,9436 16059,9472 16080,9509 16103,9531 16128,9541 16153,9550 16176,9549 16196,9537 16215,9527 16224,9511 16225,9490 16226,9474 16220,9441 16205,9392 16188,9325 16176,9277 16174,9247 16172,9218 16178,9192 16190,9170 16203,9148 16220,9130 16244,9116 16264,9104 16287,9097 16310,9097 16333,9096 16356,9102 16378,9111 16394,9118 16412,9131 16430,9149 16448,9166 16465,9188 16479,9212 16501,9249 16514,9285 16519,9320 16524,9353 16521,9383 16511,9406 16500,9430 16481,9453 16454,9476 L 16398,9403 C 16421,9386 16434,9365 16437,9340 16441,9315 16435,9287 16417,9256 16396,9219 16374,9196 16353,9187 16332,9179 16313,9179 16297,9188 16287,9194 16279,9203 16274,9214 16269,9226 16268,9240 16271,9257 16272,9267 16279,9294 16291,9340 16308,9404 16318,9452 16321,9480 16325,9508 16321,9533 16310,9557 16298,9580 16279,9600 16252,9615 16225,9630 16196,9637 16163,9635 16130,9633 16099,9621 16069,9599 16039,9577 16014,9547 15993,9510 15958,9448 15944,9394 15951,9347 15958,9300 15984,9259 16029,9221 Z"/>
      </g>
     </g>
     <g class="com.sun.star.drawing.CustomShape">
      <g id="id12">
       <rect class="BoundingBox" stroke="none" fill="none" x="3399" y="2599" width="13504" height="11804"/>
       <path fill="rgb(114,159,207)" stroke="none" d="M 10150,2600 L 16901,14400 3400,14400 10150,2600 Z M 3400,2600 L 3400,2600 Z M 16901,14401 L 16901,14401 Z"/>
       <path fill="none" stroke="rgb(52,101,164)" d="M 10150,2600 L 16901,14400 3400,14400 10150,2600 Z"/>
       <path fill="none" stroke="rgb(52,101,164)" d="M 3400,2600 L 3400,2600 Z"/>
       <path fill="none" stroke="rgb(52,101,164)" d="M 16901,14401 L 16901,14401 Z"/>
      </g>
     </g>
    </g>
   </g>
  </g>
 </g>
</svg>